<svg width="985" height="836" viewBox="0 0 985 836" fill="none" xmlns="http://www.w3.org/2000/svg">
<g clip-path="url(#clip0_0_608)">
<path d="M958.408 490.7V510.786C958.408 518.23 954.429 525.104 947.976 528.809L545.776 759.739C526.872 770.593 503.624 770.561 484.75 759.657L107.75 541.842C102.411 538.756 99.1215 533.056 99.1215 526.887V507.097C100.376 502.096 103.549 497.508 108.631 494.567L147.419 472.168L220.511 473.835L901.078 489.389L958.408 490.7Z" fill="url(#paint0_linear_0_608)"/>
<path d="M948.346 509.915L942.384 513.362L926.827 522.351L541.214 745.107C522.746 755.773 500.001 755.773 481.544 745.107L136.459 545.771L116.559 534.272L108.622 529.683C95.1154 521.883 95.1154 502.377 108.631 494.568L522.391 255.593C536.197 247.624 553.204 247.605 567.028 255.556L948.318 474.781C961.853 482.572 961.871 502.106 948.346 509.915Z" fill="#2A2F6D"/>
<path d="M948.346 509.915L942.384 513.362L926.827 522.351L552.268 305.57L136.459 545.771L116.559 534.272L108.622 529.683C95.1154 521.883 95.1154 502.377 108.631 494.568L522.391 255.593C536.197 247.624 553.204 247.605 567.028 255.556L948.318 474.781C961.853 482.572 961.871 502.106 948.346 509.915Z" fill="#242D60"/>
<path d="M958.408 494.062C957.893 500.298 954.542 506.338 948.346 509.915L942.384 513.362L901.078 489.389L556.92 289.679C550.836 286.158 543.329 286.158 537.254 289.688L220.511 473.835L116.559 534.272L108.622 529.683C103.549 526.752 100.376 522.173 99.1215 517.173C98.2884 513.867 98.2884 510.393 99.1215 507.097C100.376 502.096 103.549 497.508 108.631 494.568L147.419 472.168L522.391 255.593C536.197 247.624 553.204 247.605 567.028 255.556L948.318 474.781C954.542 478.358 957.912 484.435 958.408 490.7C958.502 491.814 958.502 492.948 958.408 494.062Z" fill="url(#paint1_linear_0_608)"/>
<g opacity="0.49">
<path opacity="0.49" d="M138.447 753.703L31.8801 692.144C28.02 689.914 28.02 684.339 31.8801 682.109L150.12 613.818C154.066 611.539 158.925 611.535 162.874 613.806L271.833 676.454C275.703 678.679 275.708 684.262 271.844 686.494L155.498 753.702C150.222 756.75 143.722 756.75 138.447 753.703Z" fill="url(#paint2_linear_0_608)"/>
</g>
<g opacity="0.49">
<path opacity="0.49" d="M680.384 434.068C658.729 421.534 659.086 401.178 681.179 388.833C703.27 376.489 738.116 376.489 758.611 388.833C779.107 401.178 778.75 421.533 757.816 434.068C736.884 446.603 702.039 446.603 680.384 434.068Z" fill="url(#paint3_linear_0_608)"/>
</g>
<g opacity="0.49">
<path opacity="0.49" d="M428.594 386.386C415.668 378.904 415.881 366.754 429.068 359.384C442.256 352.015 463.055 352.015 475.289 359.384C487.524 366.753 487.31 378.904 474.815 386.386C462.32 393.868 441.52 393.868 428.594 386.386Z" fill="url(#paint4_linear_0_608)"/>
</g>
<g opacity="0.49">
<path opacity="0.49" d="M784.414 538.588C777.358 534.505 777.474 527.872 784.673 523.849C791.872 519.827 803.226 519.827 809.904 523.849C816.582 527.871 816.466 534.504 809.645 538.588C802.823 542.672 791.469 542.672 784.414 538.588Z" fill="url(#paint5_linear_0_608)"/>
</g>
<g opacity="0.46">
<path opacity="0.46" d="M265.889 325.191L104.749 418.946C98.6413 422.5 90.9783 418.112 90.9474 411.043L90.7321 361.018C90.718 357.732 92.459 354.688 95.2988 353.036L256.44 259.281C262.547 255.727 270.21 260.115 270.241 267.184L270.456 317.209C270.47 320.495 268.729 323.538 265.889 325.191Z" fill="#CDE9F9"/>
</g>
<g opacity="0.46">
<path opacity="0.46" d="M465.207 247.149L304.066 340.905C297.959 344.458 290.296 340.069 290.265 333.001L290.05 282.977C290.036 279.691 291.777 276.646 294.617 274.995L455.757 181.239C461.864 177.686 469.527 182.074 469.558 189.143L469.773 239.167C469.787 242.453 468.046 245.497 465.207 247.149Z" fill="#CDE9F9"/>
</g>
<g opacity="0.46">
<path opacity="0.46" d="M479.876 146.172L318.735 239.929C312.628 243.482 304.965 239.094 304.934 232.025L304.719 182.001C304.705 178.715 306.446 175.671 309.286 174.019L470.426 80.2634C476.533 76.7097 484.196 81.0978 484.227 88.1668L484.442 138.191C484.456 141.477 482.714 144.521 479.876 146.172Z" fill="#CDE9F9"/>
</g>
<g opacity="0.49">
<path opacity="0.49" d="M287.36 803.311C263.975 790.435 263.751 769.235 286.863 756.201C309.974 743.167 347.208 743.058 369.602 755.959C391.997 768.86 392.221 790.059 370.099 803.069C347.977 816.08 310.745 816.188 287.36 803.311Z" fill="url(#paint6_linear_0_608)"/>
</g>
<g opacity="0.46">
<path opacity="0.46" d="M667.662 96.9156V281.442C667.662 290.463 672.471 298.799 680.28 303.311L927.086 445.931C943.915 455.655 964.955 443.505 964.955 424.062V238.5C964.955 229.45 960.115 221.092 952.269 216.591L705.463 75.0071C688.634 65.3526 667.662 77.5074 667.662 96.9156Z" fill="url(#paint7_linear_0_608)"/>
</g>
<path d="M790.448 152.902V157.078L807.983 167.197V163.02L790.448 152.902Z" fill="white"/>
<path d="M790.448 160.531V164.707L807.983 174.825V170.649L790.448 160.531Z" fill="white"/>
<path d="M790.448 168.158V172.335L807.983 182.454V178.277L790.448 168.158Z" fill="white"/>
<path d="M922.778 256.325V252.15L814.561 189.702V193.878L922.778 256.325Z" fill="white"/>
<path d="M790.448 175.788V179.963L807.983 190.082V185.906L790.448 175.788Z" fill="white"/>
<path d="M790.448 183.417V187.592L807.983 197.71V193.534L790.448 183.417Z" fill="white"/>
<path d="M922.778 263.953V259.778L814.561 197.331V201.506L922.778 263.953Z" fill="white"/>
<path d="M790.448 206.302V210.477L807.983 220.595V216.42L790.448 206.302Z" fill="white"/>
<path d="M790.448 213.93V218.106L807.983 228.223V224.048L790.448 213.93Z" fill="white"/>
<path d="M790.448 244.443V248.619L807.983 258.737V254.561L790.448 244.443Z" fill="white"/>
<path d="M790.448 252.072V256.248L807.983 266.366V262.19L790.448 252.072Z" fill="white"/>
<path d="M882.832 305.383L814.561 265.986V270.163L882.832 309.559V305.383Z" fill="white"/>
<path d="M886.43 307.459V311.636L922.778 332.61V328.434L886.43 307.459Z" fill="white"/>
<path d="M848.861 278.151L814.561 258.357V262.534L848.861 282.328V278.151Z" fill="white"/>
<path d="M852.46 280.227V284.404L922.778 324.981V320.805L852.46 280.227Z" fill="white"/>
<path d="M913.528 292.582V296.758L922.778 302.096V297.92L913.528 292.582Z" fill="white"/>
<path d="M863.186 255.904L814.561 227.844V232.019L863.186 260.08V255.904Z" fill="white"/>
<path d="M843.262 183.379L814.561 166.817V170.993L843.262 187.555V183.379Z" fill="white"/>
<path d="M890.307 210.527L846.86 185.455V189.632L890.307 214.703V210.527Z" fill="white"/>
<path d="M864.986 203.543L834.396 185.891V190.067L864.986 207.72V203.543Z" fill="white"/>
<path d="M897.08 222.064L868.584 205.619V209.796L897.08 226.239V222.064Z" fill="white"/>
<path d="M900.679 224.14V228.316L922.778 241.068V236.893L900.679 224.14Z" fill="white"/>
<path d="M820.214 185.336V189.512L843.262 202.811V198.635L820.214 185.336Z" fill="white"/>
<path d="M913.762 239.318L846.86 200.712V204.889L913.762 243.493V239.318Z" fill="white"/>
<path d="M875.459 240.101L831.738 214.871V219.047L875.459 244.277V240.101Z" fill="white"/>
<path d="M913.762 262.203L879.057 242.177V246.353L913.762 266.379V262.203Z" fill="white"/>
<path d="M909.93 282.877L866.785 257.98V262.156L909.93 287.053V282.877Z" fill="white"/>
<path d="M886.43 276.945V281.122L909.93 294.681V290.506L886.43 276.945Z" fill="white"/>
<path d="M823.023 240.356L814.561 235.472V239.649L823.023 244.532V240.356Z" fill="white"/>
<path d="M838.873 249.502V253.678L882.832 279.045V274.869L838.873 249.502Z" fill="white"/>
<path d="M835.275 247.426L826.621 242.433V246.608L835.275 251.602V247.426Z" fill="white"/>
<path d="M874.7 277.805L826.621 250.061V254.237L874.7 281.98V277.805Z" fill="white"/>
<path d="M687.081 99.3578V223.973C687.081 228.057 689.273 231.827 692.822 233.845L752.741 267.912C757.913 270.853 764.331 267.117 764.331 261.166V139.3C764.331 134.993 762.008 131.022 758.255 128.912L696.189 94.0249C692.114 91.7344 687.081 94.6813 687.081 99.3578Z" fill="url(#paint8_linear_0_608)"/>
<path opacity="0.5" d="M804.865 285.271L837.236 303.971C838.553 304.732 839.365 306.138 839.365 307.66V375.804C839.365 378.139 836.837 379.599 834.816 378.431L803.065 360.091C801.825 359.375 801.063 358.052 801.063 356.621V287.467C801.063 285.515 803.175 284.295 804.865 285.271Z" fill="url(#paint9_linear_0_608)"/>
<path d="M804.971 286.941C804.616 286.737 804.324 286.903 804.324 287.31C804.324 287.716 804.616 288.219 804.971 288.427C805.327 288.635 805.618 288.469 805.618 288.058C805.619 287.647 805.328 287.144 804.971 286.941Z" stroke="white" stroke-width="0.251276" stroke-miterlimit="10"/>
<path d="M807.046 288.162C806.691 287.959 806.4 288.124 806.4 288.531C806.4 288.937 806.691 289.44 807.046 289.648C807.402 289.856 807.693 289.69 807.693 289.279C807.693 288.868 807.402 288.365 807.046 288.162Z" stroke="white" stroke-width="0.251276" stroke-miterlimit="10"/>
<path d="M809.088 289.28C808.732 289.077 808.441 289.242 808.441 289.649C808.441 290.055 808.732 290.558 809.088 290.766C809.443 290.974 809.735 290.808 809.735 290.397C809.735 289.986 809.443 289.483 809.088 289.28Z" stroke="white" stroke-width="0.251276" stroke-miterlimit="10"/>
<path d="M853.994 317.637V358.894C853.994 360.674 854.942 362.32 856.482 363.212L883.489 378.856C885.479 380.009 887.969 378.572 887.969 376.271V335.767C887.969 333.634 886.828 331.664 884.978 330.604L858.149 315.228C856.299 314.168 853.994 315.504 853.994 317.637Z" fill="white"/>
<path d="M896.521 342.243V383.134C896.521 385.15 897.596 387.012 899.342 388.02L917.217 398.346C919.359 399.584 922.038 398.037 922.038 395.561V356.166C922.038 353.587 920.663 351.204 918.431 349.915L900.836 339.751C898.919 338.644 896.521 340.028 896.521 342.243Z" fill="#17A1DB"/>
<path d="M167.53 458.046C167.53 458.046 160.896 453.03 152.893 454.386C144.89 455.741 133.948 459.533 132.133 463.111C130.318 466.687 131.902 474.826 139.475 475.589C147.048 476.352 154.112 476.657 155.637 478.335C157.162 480.013 150.265 484.111 154.171 485.799C158.077 487.487 170.885 483.369 172.104 479.555C173.324 475.741 167.53 458.046 167.53 458.046Z" fill="url(#paint10_linear_0_608)"/>
<path d="M390.29 609.822C390.29 609.822 402.717 615.486 405.842 621.568C408.967 627.65 408.802 629.416 404.927 627.975C401.052 626.533 398.676 624.806 398.676 624.806C398.676 624.806 400.195 636.131 402.487 639.109C404.779 642.088 406.756 649.177 394.254 650.397C381.752 651.617 372.298 652.228 369.096 635.448C365.894 618.668 367.431 610.535 367.431 610.535L390.29 609.822Z" fill="url(#paint11_linear_0_608)"/>
<path d="M384.134 426.545C383.689 429.853 382.983 432.791 382.062 435.399C377.143 449.437 366.253 454.028 359.081 455.008C350.585 456.176 312.191 440.624 312.191 440.624C312.191 440.624 300.306 422.974 308.219 402.839C315.448 384.447 335.821 375.265 354.821 378.524C356.615 378.82 358.399 379.239 360.159 379.775C380.524 385.936 386.939 405.479 384.134 426.545Z" fill="white"/>
<g opacity="0.38">
<path opacity="0.38" d="M384.134 426.545C383.689 429.853 382.983 432.791 382.062 435.399C377.143 449.437 366.253 454.028 359.081 455.008C355.536 455.493 346.809 453.074 337.82 450.087C325.252 445.915 312.191 440.624 312.191 440.624C312.191 440.624 300.306 422.974 308.219 402.839C311.287 395.046 316.706 388.899 323.394 384.67C332.474 378.902 343.874 376.647 354.821 378.524C356.615 378.82 358.399 379.239 360.159 379.775C380.524 385.936 386.939 405.479 384.134 426.545Z" fill="url(#paint12_linear_0_608)"/>
</g>
<g opacity="0.52">
<path opacity="0.52" d="M337.82 450.087C325.252 445.915 312.191 440.624 312.191 440.624C312.191 440.624 300.306 422.973 308.219 402.839C311.287 395.046 316.706 388.899 323.394 384.67C315.843 393.78 313.795 406.188 317.102 422.217C319.536 434.033 329.192 443.636 337.82 450.087Z" fill="url(#paint13_linear_0_608)"/>
</g>
<path d="M395.451 612.055C395.451 612.055 389.835 615.37 380.681 615.951C371.536 616.531 365.134 614.097 365.134 614.097C365.134 614.097 349.886 560.702 348.67 548.201C347.443 535.69 346.227 518.554 346.227 518.554C346.227 518.554 345.974 518.816 345.515 519.322C341.359 523.863 320.103 547.929 312.072 573.522C303.152 601.942 273.153 652.509 262.267 671.284C251.391 690.059 234.927 689.141 225.773 689.141C224.35 689.141 221.982 689.01 218.996 688.776C202.803 687.54 168.508 683.551 168.508 683.551C168.508 683.551 162.331 701.746 147.851 707.036C133.38 712.327 132.725 710.267 132.154 701.952C131.583 693.646 146.185 655.58 153.195 653.145C160.215 650.701 162.368 655.777 178.673 653.998C194.978 652.228 230.705 648.641 230.705 648.641C230.705 648.641 237.791 636.955 242.761 620.183C246.945 606.081 247.61 593.917 247.713 590.405C247.731 589.74 247.731 589.385 247.731 589.385C247.731 589.385 209.308 617.758 202.906 620.502C196.532 623.236 132.453 632.31 118.928 632.394H118.741C118.741 632.394 111.421 648.566 100.751 655.281C90.0713 661.995 77.5757 663.952 77.8752 660.225C78.1841 656.498 87.3288 629.96 102.885 614.396C102.885 614.396 107.453 608.909 115.69 610.435C115.69 610.435 180.901 598.374 187.481 590.518C194.061 582.671 226.793 532.947 235.432 516.775C244.072 500.603 249.163 484.056 249.163 484.056C249.163 484.056 249.042 484.065 248.808 484.075C246.206 484.187 229.835 484.824 223.639 483.129C216.909 481.284 170.886 481.387 170.886 481.387C170.886 481.387 164.895 476.967 163.491 469.851C163.21 468.474 163.107 466.995 163.257 465.421C164.174 455.758 165.7 456.563 165.7 456.563C165.7 456.563 217.339 456.067 235.432 451.796C235.432 451.796 253.282 446.253 260.395 442.142C267.518 438.031 292.004 431.214 327.404 438.855C362.794 446.506 399.85 463.005 393.102 494.525C386.362 526.045 381.355 533.49 385.969 557.556C390.584 581.612 389.479 605.547 395.451 612.055Z" fill="white"/>
<g opacity="0.04">
<path opacity="0.04" d="M395.45 612.06C395.45 612.06 395.029 612.313 394.224 612.678C392.605 613.437 389.432 614.701 385.051 615.45C383.703 615.675 382.243 615.853 380.68 615.956C371.535 616.536 365.133 614.102 365.133 614.102C365.133 614.102 359.77 595.308 355.146 577.403C355.146 577.394 355.146 577.375 355.137 577.366C351.973 565.118 349.165 553.291 348.669 548.206C347.443 535.695 346.226 518.559 346.226 518.559C346.226 518.559 345.973 518.821 345.514 519.327C345.318 519.542 345.093 519.795 344.822 520.094C344.822 520.094 344.822 520.094 344.822 520.104C344.401 520.572 343.895 521.134 343.315 521.789C336.435 529.683 319.138 551.015 312.071 573.527C303.151 601.947 273.152 652.514 262.266 671.289C251.39 690.064 234.926 689.146 225.772 689.146C224.349 689.146 221.981 689.015 218.995 688.781C202.802 687.545 168.507 683.556 168.507 683.556C168.507 683.556 162.33 701.751 147.85 707.041C133.379 712.332 132.724 710.272 132.153 701.957C131.582 693.651 146.184 655.585 153.194 653.15C158.08 651.446 160.607 653.384 167.178 654.124C170.052 654.452 173.711 654.546 178.672 654.003C194.977 652.233 230.705 648.646 230.705 648.646C230.705 648.646 237.79 636.96 242.76 620.188C246.944 606.086 247.609 593.922 247.712 590.41C247.73 589.745 247.73 589.39 247.73 589.39C247.73 589.39 247.459 589.596 246.954 589.961C241.478 593.987 208.765 617.997 202.905 620.507C196.531 623.241 132.452 632.315 118.927 632.399H118.74C118.74 632.399 111.421 648.571 100.75 655.285C90.0703 662 77.5747 663.957 77.8742 660.23C78.1831 656.503 87.3278 629.965 102.884 614.401C102.884 614.401 107.452 608.914 115.689 610.44C115.689 610.44 180.9 598.379 187.48 590.523C194.06 582.675 226.792 532.951 235.431 516.78C244.071 500.608 249.162 484.061 249.162 484.061C249.162 484.061 249.041 484.07 248.807 484.08C246.205 484.192 229.834 484.829 223.638 483.134C216.908 481.289 170.885 481.392 170.885 481.392C170.885 481.392 164.894 476.972 163.49 469.856C163.209 468.479 163.106 466.999 163.256 465.426C164.174 455.762 165.699 456.568 165.699 456.568C165.699 456.568 217.338 456.071 235.431 451.801C235.431 451.801 252.204 446.595 259.711 442.531C259.945 442.4 260.179 442.269 260.394 442.147C267.517 438.036 292.003 431.219 327.403 438.86C362.793 446.511 399.849 463.01 393.101 494.53C386.362 526.05 381.354 533.495 385.968 557.561C390.583 581.617 389.478 605.552 395.45 612.06Z" fill="url(#paint14_linear_0_608)"/>
</g>
<path d="M150.431 655.397C150.431 655.397 159.954 653.448 158.787 666.872C157.62 680.295 150.788 696.289 146.976 702.465C143.165 708.64 132.692 710.353 132.272 703.485C131.852 696.617 138.516 672.752 150.431 655.397Z" fill="#17A1DB"/>
<g opacity="0.52">
<path opacity="0.52" d="M360.557 477.417C352.938 487.718 347.949 507.542 345.515 519.322C341.36 523.864 320.103 547.93 312.072 573.522C303.152 601.942 273.153 652.509 262.267 671.284C251.391 690.059 234.927 689.142 225.773 689.142C224.35 689.142 221.982 689.011 218.996 688.776C228.965 686.585 240.627 682.924 248.649 676.94C265.412 664.43 264.196 634.53 294.691 572.67C325.185 510.81 371.845 462.163 360.557 477.417Z" fill="url(#paint15_linear_0_608)"/>
</g>
<path d="M104.948 612.617C104.948 612.617 112.945 609.364 111.42 619.432C109.896 629.499 99.5277 646.279 92.8194 652.075C86.1111 657.872 77.7338 658.023 80.8545 650.624C83.976 643.225 91.8674 623.974 104.948 612.617Z" fill="#17A1DB"/>
<path d="M306.484 599.657C305.876 603.515 287.324 641.777 283.992 644.006C282.27 645.149 279.378 645.055 277.187 643.716C275.128 642.461 273.668 640.111 274.361 636.665C275.662 630.166 284.76 607.373 292.369 595.575C293.586 593.692 295.917 592.887 298.023 593.617C298.959 593.936 299.979 594.329 300.99 594.769C303.966 596.052 306.774 597.784 306.484 599.657Z" fill="#CDE9F9"/>
<path d="M248.32 584.323C248.311 586.196 248.751 587.385 247.73 589.389C247.73 589.389 209.308 617.763 202.905 620.507C201.305 621.19 196.072 622.276 188.912 623.522C167.553 627.23 129.055 632.334 118.927 632.399C119.302 626.631 119.348 622.333 119.348 622.333C119.348 622.333 148.627 618.062 182.781 609.822C216.927 601.591 249.303 560.576 249.303 560.576C248.451 563.554 248.348 571.326 248.329 577.768C248.32 580.278 248.329 582.582 248.32 584.323Z" fill="url(#paint16_linear_0_608)"/>
<path d="M240.59 689.769C237.669 691.735 201.989 694.198 182.782 686.791C182.782 686.791 183.166 685.18 183.924 683.56C184.664 681.968 185.759 680.377 187.2 680.292C190.092 680.142 215.86 681.856 225.773 681.613C233.935 681.407 240.693 685.733 241.179 688.374C241.292 688.935 241.104 689.422 240.59 689.769Z" fill="#CDE9F9"/>
<path d="M184.27 624.136C183.999 624.95 183.194 625.812 181.556 626.598C177.138 628.733 138.406 634.652 131.087 634.211C131.087 634.211 130.843 633.247 130.769 632.076C130.647 630.503 130.825 628.565 132.257 628.125C134.747 627.366 181.182 620.034 182.726 620.924C183.709 621.485 184.738 622.75 184.27 624.136Z" fill="#CDE9F9"/>
<path d="M296.219 545.063C291.239 550.944 264.002 543.415 254.445 540.568C245.282 537.834 231.251 535.371 234.424 523.441C234.565 522.935 234.724 522.402 234.93 521.858C239.806 508.571 268.392 467.799 272.295 459.09C276.198 450.372 281.468 445.053 284.818 445.39C284.818 445.39 325.525 449.192 338.18 455.457C339.94 456.328 341.156 457.245 341.653 458.201C345.705 466.076 301.189 539.182 296.219 545.063Z" fill="url(#paint17_linear_0_608)"/>
<path d="M325.438 463.726C325.232 466.797 323.136 471.292 320.627 470.964C317.66 470.562 282.916 464.053 278.554 462.967C278.432 462.93 278.329 462.902 278.254 462.883C275.615 462.096 278.544 456.103 281.998 454.174C281.998 454.174 324.483 459.371 325.298 462.012C325.438 462.48 325.485 463.07 325.438 463.726Z" fill="#3C7FBE"/>
<path d="M316.219 480.712C315.947 483.784 313.879 488.091 311.426 487.764C308.637 487.389 277.674 481.593 270.42 480.01C269.746 479.86 269.278 479.748 269.053 479.682C266.405 478.896 269.344 472.903 272.797 470.983C272.797 470.983 315.283 476.171 316.097 478.811C316.256 479.326 316.293 479.982 316.219 480.712Z" fill="#3C7FBE"/>
<path d="M306.596 496.182C306.568 496.416 306.325 497.062 305.923 498.017C303.115 504.694 292.332 526.438 289.271 528.929C286.267 531.373 277.646 528.114 273.612 525.951C272.947 525.604 272.414 525.277 272.039 525.014C269.39 523.141 287.483 493.738 287.483 493.738C291.143 490.488 306.83 494.3 306.596 496.182Z" fill="#BD8AAE"/>
<path d="M393.718 483.833C393.718 483.833 381.375 487.486 375.195 486.571C369.016 485.656 368.943 503.96 370.163 505.333C371.383 506.706 386.767 508.078 390.662 505.333C390.662 505.333 394.947 489.61 393.718 483.833Z" fill="#CDE9F9"/>
<path d="M341.041 458.91C341.041 458.91 350.219 448.115 358.057 448.123C358.057 448.123 345.969 442.254 342.209 442.599C338.449 442.943 329.481 453.316 329.481 453.316C329.481 453.316 340.127 456.571 341.041 458.91Z" fill="#AECFDC"/>
<path d="M290.199 446.728C290.199 446.728 298.803 436.61 304.599 435.658C304.599 435.658 295.344 435.575 291.204 435.658C287.064 435.741 280.703 447.302 280.703 447.302C280.703 447.302 281.894 444.869 290.199 446.728Z" fill="#AECFDC"/>
<path d="M220.101 480.598C225.658 480.598 230.164 475.51 230.164 469.234C230.164 462.957 225.658 457.869 220.101 457.869C214.543 457.869 210.038 462.957 210.038 469.234C210.038 475.51 214.543 480.598 220.101 480.598Z" fill="#AECFDC"/>
<path d="M301.173 537.532C301.173 537.532 304.061 547.415 321.981 551.508L317.971 559.028C317.971 559.028 299.559 559.215 295.599 545.774L301.173 537.532Z" fill="#AECFDC"/>
<path d="M258.7 462.589C258.588 462.842 256.051 468.264 253.786 473.414C252.551 476.214 251.4 478.939 250.754 480.718C250.361 481.795 249.668 482.947 248.807 484.08C246.205 484.192 229.834 484.829 223.638 483.134C218.93 481.842 195.015 481.505 181.059 481.42C175.05 481.383 170.885 481.392 170.885 481.392C170.885 481.392 164.894 476.972 163.49 469.855C170.276 469.49 184.017 469.069 202.297 470.174C228.533 471.756 258.064 462.776 258.7 462.589Z" fill="url(#paint18_linear_0_608)"/>
<path d="M363.323 568.636C368.88 568.636 373.386 563.548 373.386 557.272C373.386 550.995 368.88 545.907 363.323 545.907C357.765 545.907 353.26 550.995 353.26 557.272C353.26 563.548 357.765 568.636 363.323 568.636Z" fill="#AECFDC"/>
<g opacity="0.52">
<path opacity="0.52" d="M385.052 615.445C383.704 615.67 382.244 615.848 380.681 615.951C371.536 616.532 365.134 614.097 365.134 614.097C365.134 614.097 349.886 560.702 348.67 548.201C347.444 535.69 346.227 518.554 346.227 518.554C346.227 518.554 345.974 518.816 345.515 519.322C345.019 519.874 345.634 519.165 344.68 520.251C350.37 499.369 356.373 484.599 357.009 483.223C356.598 484.216 353.331 492.671 353.256 511.138C353.172 530.83 360.557 554.297 365.134 580.536C367.82 595.912 377.499 608.048 385.052 615.445Z" fill="url(#paint19_linear_0_608)"/>
</g>
<path d="M384.134 426.545C383.689 429.852 382.983 432.791 382.062 435.399C379.569 437.226 375.218 439.175 368.556 438.304C356.935 436.789 344.663 412.91 346.283 396.412C347.27 386.381 351.588 381.107 354.82 378.522C356.614 378.818 358.398 379.238 360.158 379.774C380.524 385.936 386.939 405.479 384.134 426.545Z" fill="url(#paint20_linear_0_608)"/>
<path d="M346.965 435.903C345.542 437.392 343.388 438.199 342.343 437.532C340.328 436.248 336.306 431.484 335.385 425.938C334.694 421.791 336.684 417.528 339.941 416.385C341.036 415.998 342.269 415.965 343.594 416.409C343.594 416.409 344.869 426.728 347.649 430.686C348.988 432.578 348.281 434.529 346.965 435.903Z" fill="#CDE9F9"/>
<path d="M346.965 435.903C345.542 437.392 343.388 438.199 342.343 437.532C340.328 436.248 336.306 431.484 335.385 425.938C334.694 421.791 336.684 417.528 339.941 416.385C339.563 418.524 339.423 421.1 339.966 423.832C340.887 428.407 344.498 433.113 346.965 435.903Z" fill="url(#paint21_linear_0_608)"/>
<path d="M325.438 463.726C314.983 461.31 281.895 456.955 281.895 456.955C279.846 458.641 278.928 461.422 278.554 462.967C278.432 462.93 278.329 462.902 278.254 462.883C275.615 462.096 278.544 456.103 281.998 454.174C281.998 454.174 324.483 459.371 325.298 462.012C325.438 462.48 325.485 463.07 325.438 463.726Z" fill="#306097"/>
<path d="M316.219 480.712C307.064 477.716 273.256 473.502 273.256 473.502C273.256 473.502 273.05 474.551 271.777 476.274C270.972 477.36 270.588 478.961 270.42 480.01C269.746 479.86 269.278 479.748 269.053 479.682C266.405 478.896 269.344 472.903 272.797 470.983C272.797 470.983 315.283 476.171 316.097 478.811C316.256 479.326 316.293 479.982 316.219 480.712Z" fill="#306097"/>
<path d="M306.596 496.182C306.568 496.416 306.325 497.062 305.923 498.017C295.29 493.86 288.709 496.304 288.709 496.304C288.709 496.304 287.998 497.83 284.844 503.533C282.251 508.215 275.821 521.4 273.612 525.951C272.947 525.604 272.414 525.276 272.039 525.014C269.39 523.141 287.483 493.738 287.483 493.738C291.143 490.488 306.83 494.3 306.596 496.182Z" fill="#A17194"/>
<path d="M296.219 545.063C291.239 550.944 264.002 543.415 254.445 540.568C245.282 537.834 231.251 535.371 234.424 523.441C238.009 525.473 244.233 527.908 254.997 530.352C281.599 536.382 287.29 538.855 292.578 532.74C296.996 527.627 328.165 475.777 338.18 455.457C339.94 456.328 341.156 457.246 341.653 458.201C345.705 466.076 301.189 539.182 296.219 545.063Z" fill="url(#paint22_linear_0_608)"/>
<g opacity="0.52">
<path opacity="0.52" d="M300.99 594.769C300.232 595.125 299.38 595.668 298.5 596.483C295.608 599.161 289.206 613.179 281.418 630.381C278.236 637.404 277.243 641.422 277.187 643.716C275.128 642.461 273.668 640.111 274.361 636.665C275.662 630.166 284.76 607.373 292.369 595.575C293.586 593.692 295.917 592.887 298.023 593.617C298.959 593.936 299.979 594.329 300.99 594.769Z" fill="url(#paint23_linear_0_608)"/>
</g>
<g opacity="0.52">
<path opacity="0.52" d="M241.179 688.374C237.679 686.716 231.688 684.506 224.406 684.413C213.764 684.281 189.624 683.392 183.924 683.56C184.664 681.968 185.759 680.377 187.2 680.292C190.092 680.142 215.86 681.856 225.773 681.613C233.935 681.407 240.693 685.733 241.179 688.374Z" fill="url(#paint24_linear_0_608)"/>
</g>
<path d="M184.27 624.135C183.26 623.742 181.528 623.143 180.489 623.246C178.963 623.396 147.252 627.825 138.565 629.351C134.625 630.035 132.219 631.102 130.769 632.076C130.647 630.503 130.825 628.565 132.257 628.125C134.747 627.366 181.182 620.034 182.726 620.924C183.709 621.485 184.738 622.75 184.27 624.135Z" fill="url(#paint25_linear_0_608)"/>
<path opacity="0.2" d="M255.051 621.719C253.216 638.5 233.963 660.618 233.963 660.618L169.088 664.739L169.051 660.618C169.285 657.566 168.386 655.506 167.179 654.12C170.053 654.447 173.712 654.541 178.673 653.998C194.978 652.228 230.705 648.642 230.705 648.642C230.705 648.642 237.791 636.955 242.761 620.184C246.945 606.081 247.61 593.917 247.713 590.406C247.731 589.741 247.731 589.385 247.731 589.385C247.731 589.385 247.46 589.591 246.954 589.956C248.293 577.97 248.592 566.208 248.592 566.208C248.592 566.208 256.876 604.939 255.051 621.719Z" fill="url(#paint26_linear_0_608)"/>
<path d="M253.786 473.414C252.551 476.214 251.4 478.939 250.754 480.718C250.361 481.795 249.668 482.947 248.807 484.08C246.205 484.192 229.834 484.829 223.638 483.134C218.93 481.842 195.015 481.504 181.059 481.42C185.776 480.072 193.704 478.77 206.022 479.379C223.441 480.24 244.426 475.717 253.786 473.414Z" fill="#758E9B"/>
<path d="M355.137 577.366C351.973 565.117 349.165 553.29 348.669 548.206C347.443 535.695 346.226 518.559 346.226 518.559C346.226 518.559 345.973 518.821 345.514 519.326C345.318 519.542 345.093 519.795 344.822 520.094C347.106 511.957 349.558 503.847 349.558 503.847C349.558 503.847 350.26 509.045 350.7 532.23C350.953 545.125 353.199 563.544 355.137 577.366Z" fill="#758E9B"/>
<path d="M247.73 589.39C247.73 589.39 209.308 617.763 202.905 620.507C201.305 621.19 196.072 622.277 188.912 623.522C217.881 610.918 238.342 589.802 248.329 577.769C248.32 580.278 248.329 582.582 248.32 584.323C248.311 586.196 248.751 587.386 247.73 589.39Z" fill="#758E9B"/>
<path d="M395.45 612.06C395.45 612.06 395.029 612.313 394.224 612.678C388.739 606.18 385.482 587.386 385.051 577.769C384.471 564.724 377.095 545.05 385.051 513.624C393.007 482.198 391.734 473.657 378.012 462.589C364.291 451.52 342.21 442.596 306.595 439.487C290.225 438.055 273.265 440.002 259.711 442.531C259.945 442.4 260.179 442.269 260.394 442.147C267.517 438.036 292.003 431.219 327.403 438.86C362.793 446.511 399.849 463.01 393.101 494.53C386.362 526.05 381.354 533.495 385.968 557.561C390.583 581.617 389.478 605.552 395.45 612.06Z" fill="url(#paint27_linear_0_608)"/>
<path d="M546.437 733.682C619.822 733.682 679.311 674.166 679.311 600.749C679.311 527.332 619.822 467.816 546.437 467.816C473.053 467.816 413.564 527.332 413.564 600.749C413.564 674.166 473.053 733.682 546.437 733.682Z" fill="#3C7FBE"/>
<path d="M413.569 600.299C413.569 600.449 413.564 600.598 413.564 600.749C413.564 610.203 414.558 619.425 416.433 628.321L533.551 733.059C537.792 733.467 542.09 733.683 546.437 733.683C569.038 733.683 590.317 728.031 608.951 718.073L413.569 600.299Z" fill="url(#paint28_linear_0_608)"/>
<path d="M457.864 501.668C439.939 517.718 426.397 538.562 419.25 562.187L645.918 688.863C652.124 681.854 657.602 674.188 662.233 665.978L457.864 501.668Z" fill="url(#paint29_linear_0_608)"/>
<path d="M516.261 471.261L670.685 647.941C676.254 633.275 679.312 617.371 679.312 600.749C679.312 588.32 677.602 576.292 674.413 564.881L531.775 468.625C526.505 469.204 521.326 470.084 516.261 471.261Z" fill="url(#paint30_linear_0_608)"/>
<path d="M531.635 536.633C541.486 536.633 549.472 528.644 549.472 518.788C549.472 508.932 541.486 500.943 531.635 500.943C521.783 500.943 513.797 508.932 513.797 518.788C513.797 528.644 521.783 536.633 531.635 536.633Z" fill="url(#paint31_linear_0_608)"/>
<path d="M524.603 653.67C539.987 653.67 552.458 641.193 552.458 625.803C552.458 610.413 539.987 597.936 524.603 597.936C509.22 597.936 496.749 610.413 496.749 625.803C496.749 641.193 509.22 653.67 524.603 653.67Z" fill="url(#paint32_linear_0_608)"/>
<path d="M614.248 596.831C622.244 596.831 628.727 590.346 628.727 582.346C628.727 574.345 622.244 567.86 614.248 567.86C606.251 567.86 599.769 574.345 599.769 582.346C599.769 590.346 606.251 596.831 614.248 596.831Z" fill="url(#paint33_linear_0_608)"/>
<path d="M546.437 467.816C473.053 467.816 413.564 527.332 413.564 600.749C413.564 601.723 413.58 602.692 413.6 603.661C415.149 534.807 471.42 479.467 540.614 479.467C610.782 479.467 667.665 536.375 667.665 606.575C667.665 675.799 612.349 732.096 543.526 733.645C544.494 733.666 545.464 733.681 546.436 733.681C619.821 733.681 679.31 674.165 679.31 600.748C679.312 527.332 619.822 467.816 546.437 467.816Z" fill="url(#paint34_linear_0_608)"/>
<path d="M455.993 610.996C463.99 610.996 470.472 604.511 470.472 596.511C470.472 588.511 463.99 582.025 455.993 582.025C447.997 582.025 441.514 588.511 441.514 596.511C441.514 604.511 447.997 610.996 455.993 610.996Z" fill="url(#paint35_linear_0_608)"/>
<path d="M614.248 668.156C618.922 668.156 622.711 664.365 622.711 659.689C622.711 655.013 618.922 651.222 614.248 651.222C609.574 651.222 605.785 655.013 605.785 659.689C605.785 664.365 609.574 668.156 614.248 668.156Z" fill="url(#paint36_linear_0_608)"/>
<path d="M510.636 684.047C510.636 688.724 506.847 692.514 502.173 692.514C497.499 692.514 493.71 688.724 493.71 684.047C493.71 679.371 497.499 675.58 502.173 675.58C506.847 675.58 510.636 679.371 510.636 684.047Z" fill="url(#paint37_linear_0_608)"/>
<path d="M448.622 372.989C478.521 372.989 502.759 348.741 502.759 318.829C502.759 288.917 478.521 264.668 448.622 264.668C418.724 264.668 394.486 288.917 394.486 318.829C394.486 348.741 418.724 372.989 448.622 372.989Z" fill="url(#paint38_linear_0_608)"/>
<path d="M448.622 372.989C478.521 372.989 502.759 348.741 502.759 318.829C502.759 288.917 478.521 264.668 448.622 264.668C418.724 264.668 394.486 288.917 394.486 318.829C394.486 348.741 418.724 372.989 448.622 372.989Z" fill="url(#paint39_linear_0_608)"/>
<path d="M444.762 359.052C448.776 359.052 452.029 355.797 452.029 351.782C452.029 347.767 448.776 344.512 444.762 344.512C440.749 344.512 437.495 347.767 437.495 351.782C437.495 355.797 440.749 359.052 444.762 359.052Z" fill="url(#paint40_linear_0_608)"/>
<path d="M474.77 311.954C481.037 311.954 486.118 306.871 486.118 300.601C486.118 294.331 481.037 289.248 474.77 289.248C468.502 289.248 463.422 294.331 463.422 300.601C463.422 306.871 468.502 311.954 474.77 311.954Z" fill="url(#paint41_linear_0_608)"/>
<path d="M469.382 316.822C469.426 320.081 466.821 322.759 463.563 322.803C460.305 322.847 457.629 320.241 457.585 316.981C457.541 313.722 460.146 311.044 463.404 311C466.661 310.956 469.338 313.562 469.382 316.822Z" fill="url(#paint42_linear_0_608)"/>
<path d="M423.408 300.406C423.452 303.666 420.848 306.343 417.589 306.387C414.332 306.431 411.655 303.825 411.611 300.566C411.567 297.306 414.172 294.629 417.43 294.585C420.688 294.541 423.364 297.147 423.408 300.406Z" fill="url(#paint43_linear_0_608)"/>
<path d="M478.781 342.306C478.807 344.211 477.285 345.777 475.38 345.802C473.476 345.827 471.911 344.305 471.886 342.399C471.861 340.494 473.383 338.929 475.287 338.903C477.191 338.878 478.755 340.402 478.781 342.306Z" fill="url(#paint44_linear_0_608)"/>
<path d="M445.53 292.537C445.555 294.441 444.033 296.007 442.128 296.032C440.225 296.058 438.66 294.535 438.634 292.63C438.608 290.725 440.131 289.159 442.036 289.134C443.94 289.109 445.504 290.632 445.53 292.537Z" fill="url(#paint45_linear_0_608)"/>
<path d="M447.891 264.674C417.996 265.077 394.087 289.651 394.491 319.56C394.496 319.957 394.508 320.351 394.522 320.747C394.774 292.688 417.394 269.833 445.583 269.452C474.169 269.066 497.655 291.937 498.04 320.536C498.421 348.737 476.196 371.976 448.167 372.986C448.561 372.989 448.956 372.99 449.353 372.985C479.248 372.581 503.157 348.008 502.753 318.098C502.35 288.189 477.787 264.27 447.891 264.674Z" fill="url(#paint46_linear_0_608)"/>
<mask id="mask0_0_608" style="mask-type:alpha" maskUnits="userSpaceOnUse" x="369" y="302" width="159" height="33">
<path d="M500.23 302.435C500.654 303.771 501.026 305.13 501.346 306.509C501.675 306.57 502.015 306.627 502.339 306.689C518.932 309.86 523.401 313.835 523.427 315.684C523.452 317.534 519.091 321.628 502.589 325.245C488.258 328.387 469.149 330.268 448.78 330.543C428.41 330.819 409.257 329.453 394.848 326.7C378.255 323.53 373.785 319.554 373.76 317.705C373.735 315.856 378.096 311.762 394.598 308.144C394.92 308.074 395.258 308.006 395.585 307.937C395.868 306.549 396.204 305.181 396.591 303.835C380.691 307.006 369.906 311.698 369.987 317.756C370.143 329.327 409.769 334.846 448.831 334.318C487.893 333.791 527.356 327.203 527.2 315.633C527.117 309.574 516.209 305.176 500.23 302.435Z" fill="url(#paint47_linear_0_608)"/>
</mask>
<g mask="url(#mask0_0_608)">
<path d="M500.23 302.435C500.654 303.771 501.026 305.13 501.346 306.509C501.675 306.57 502.015 306.627 502.339 306.689C518.932 309.86 523.401 313.835 523.427 315.684C523.452 317.534 519.091 321.628 502.589 325.245C488.258 328.387 469.149 330.268 448.78 330.543C428.41 330.819 409.257 329.453 394.848 326.7C378.255 323.53 373.785 319.554 373.76 317.705C373.735 315.856 378.096 311.762 394.598 308.144C394.92 308.074 395.258 308.006 395.585 307.937C395.868 306.549 396.204 305.181 396.591 303.835C380.691 307.006 369.906 311.698 369.987 317.756C370.143 329.327 409.769 334.846 448.831 334.318C487.893 333.791 527.356 327.203 527.2 315.633C527.117 309.574 516.209 305.176 500.23 302.435Z" fill="white"/>
</g>
<path d="M713.945 404.907C755.774 404.907 789.684 370.983 789.684 329.135C789.684 287.287 755.774 253.363 713.945 253.363C672.116 253.363 638.207 287.287 638.207 329.135C638.207 370.983 672.116 404.907 713.945 404.907Z" fill="#E7F6FD"/>
<path d="M713.945 404.907C755.774 404.907 789.684 370.983 789.684 329.135C789.684 287.287 755.774 253.363 713.945 253.363C672.116 253.363 638.207 287.287 638.207 329.135C638.207 370.983 672.116 404.907 713.945 404.907Z" fill="url(#paint48_linear_0_608)"/>
<path d="M789.684 329.135C789.684 318.198 787.363 307.804 783.195 298.414C753.253 298.199 718.058 342.382 689.403 349.276C671.08 353.685 652.492 349.801 640.031 345.719C647.591 379.589 677.811 404.907 713.945 404.907C755.774 404.907 789.684 370.983 789.684 329.135Z" fill="url(#paint49_linear_0_608)"/>
<path d="M789.684 329.135C789.684 324.252 789.218 319.479 788.336 314.854C757.498 320.653 722.666 358.624 693.883 364.974C676.752 368.754 659.413 366.438 646.248 363.129C658.701 387.905 684.336 404.907 713.945 404.907C755.774 404.907 789.684 370.982 789.684 329.135Z" fill="url(#paint50_linear_0_608)"/>
<path d="M713.945 404.907C754.595 404.907 787.761 372.868 789.599 332.655C758.453 337.627 723.06 376.554 693.883 382.99C682.893 385.415 671.818 385.328 661.812 384.083C675.389 396.986 693.74 404.907 713.945 404.907Z" fill="url(#paint51_linear_0_608)"/>
<path d="M786.644 350.429C756.23 357.254 722.142 393.964 693.883 400.198C692.533 400.496 691.182 400.752 689.831 400.977C697.405 403.522 705.513 404.907 713.945 404.907C748.383 404.907 777.447 381.91 786.644 350.429Z" fill="url(#paint52_linear_0_608)"/>
<path d="M713.945 253.363C672.116 253.363 638.207 287.287 638.207 329.135C638.207 329.69 638.216 330.243 638.227 330.794C639.11 291.548 671.185 260.004 710.626 260.004C750.622 260.004 783.045 292.441 783.045 332.455C783.045 371.914 751.515 404.003 712.287 404.887C712.839 404.899 713.391 404.907 713.945 404.907C755.774 404.907 789.684 370.983 789.684 329.135C789.684 287.287 755.774 253.363 713.945 253.363Z" fill="url(#paint53_linear_0_608)"/>
<path d="M505.852 300.191L503.833 291.6L501.814 300.191L493.96 302.211L501.814 304.232L503.833 313.276L505.852 304.232L514.392 302.211L505.852 300.191Z" fill="url(#paint54_linear_0_608)"/>
<path d="M631.492 384.117L629.473 375.526L627.453 384.117L619.6 386.137L627.453 388.158L629.473 397.202L631.492 388.158L640.031 386.137L631.492 384.117Z" fill="url(#paint55_linear_0_608)"/>
<path d="M409.702 373.279L407.682 364.689L405.663 373.279L397.809 375.3L405.663 377.319L407.682 386.364L409.702 377.319L418.241 375.3L409.702 373.279Z" fill="url(#paint56_linear_0_608)"/>
<path d="M727.382 583.397L725.363 574.807L723.344 583.397L715.49 585.418L723.344 587.438L725.363 596.483L727.382 587.438L735.922 585.418L727.382 583.397Z" fill="url(#paint57_linear_0_608)"/>
<path d="M843.404 422.53L841.385 413.94L839.366 422.53L831.512 424.551L839.366 426.57L841.385 435.615L843.404 426.57L851.943 424.551L843.404 422.53Z" fill="url(#paint58_linear_0_608)"/>
<path d="M194.674 504.67L192.655 496.081L190.635 504.67L182.782 506.691L190.635 508.711L192.655 517.756L194.674 508.711L203.213 506.691L194.674 504.67Z" fill="url(#paint59_linear_0_608)"/>
<path d="M431.276 506.963L429.258 498.373L427.238 506.963L419.385 508.984L427.238 511.004L429.258 520.048L431.276 511.004L439.816 508.984L431.276 506.963Z" fill="url(#paint60_linear_0_608)"/>
<path d="M529.909 410.022L527.89 401.431L525.871 410.022L518.017 412.042L525.871 414.063L527.89 423.107L529.909 414.063L538.449 412.042L529.909 410.022Z" fill="url(#paint61_linear_0_608)"/>
<path d="M702.747 471.187L700.728 462.597L698.708 471.187L690.855 473.208L698.708 475.228L700.728 484.273L702.747 475.228L711.286 473.208L702.747 471.187Z" fill="url(#paint62_linear_0_608)"/>
<mask id="mask1_0_608" style="mask-type:alpha" maskUnits="userSpaceOnUse" x="495" y="331" width="106" height="67">
<path d="M599.425 395.294C600.68 393.168 599.975 390.427 597.85 389.173L501.926 332.507C499.801 331.252 497.061 331.957 495.807 334.083C494.553 336.209 495.258 338.95 497.383 340.204L593.307 396.87C595.431 398.126 598.17 397.42 599.425 395.294Z" fill="url(#paint63_linear_0_608)"/>
</mask>
<g mask="url(#mask1_0_608)">
<path d="M599.425 395.294C600.68 393.168 599.975 390.427 597.85 389.173L501.926 332.507C499.801 331.252 497.061 331.957 495.807 334.083C494.553 336.209 495.258 338.95 497.383 340.204L593.307 396.87C595.431 398.126 598.17 397.42 599.425 395.294Z" fill="#E7F6FD"/>
<path d="M598.648 394.835C597.537 396.717 595.11 397.343 593.229 396.231C591.348 395.12 590.722 392.693 591.833 390.81C592.944 388.928 595.371 388.303 597.252 389.414C599.133 390.525 599.759 392.952 598.648 394.835Z" fill="#CDE9F9"/>
</g>
<mask id="mask2_0_608" style="mask-type:alpha" maskUnits="userSpaceOnUse" x="517" y="435" width="106" height="66">
<path d="M621.405 498.527C622.66 496.401 621.955 493.66 619.83 492.405L523.906 435.74C521.781 434.485 519.042 435.19 517.787 437.316C516.533 439.441 517.238 442.182 519.363 443.437L615.287 500.103C617.412 501.358 620.15 500.652 621.405 498.527Z" fill="url(#paint64_linear_0_608)"/>
</mask>
<g mask="url(#mask2_0_608)">
<path d="M621.405 498.527C622.66 496.401 621.955 493.66 619.83 492.405L523.906 435.74C521.781 434.485 519.042 435.19 517.787 437.316C516.533 439.441 517.238 442.182 519.363 443.437L615.287 500.103C617.412 501.358 620.15 500.652 621.405 498.527Z" fill="#E7F6FD"/>
<path d="M620.628 498.068C619.517 499.95 617.09 500.576 615.209 499.464C613.328 498.353 612.702 495.925 613.814 494.043C614.925 492.161 617.351 491.535 619.232 492.647C621.114 493.759 621.739 496.186 620.628 498.068Z" fill="#CDE9F9"/>
</g>
<mask id="mask3_0_608" style="mask-type:alpha" maskUnits="userSpaceOnUse" x="737" y="411" width="106" height="67">
<path d="M841.409 475.408C842.663 473.282 841.958 470.542 839.833 469.287L743.909 412.621C741.785 411.366 739.045 412.072 737.791 414.197C736.536 416.323 737.241 419.064 739.366 420.319L835.29 476.984C837.415 478.24 840.154 477.534 841.409 475.408Z" fill="url(#paint65_linear_0_608)"/>
</mask>
<g mask="url(#mask3_0_608)">
<path d="M841.409 475.408C842.663 473.282 841.958 470.542 839.833 469.287L743.909 412.621C741.785 411.366 739.045 412.072 737.791 414.197C736.536 416.323 737.241 419.064 739.366 420.319L835.29 476.984C837.415 478.24 840.154 477.534 841.409 475.408Z" fill="#E7F6FD"/>
<path d="M840.631 474.95C839.52 476.832 837.094 477.457 835.212 476.346C833.331 475.234 832.706 472.807 833.817 470.925C834.928 469.043 837.354 468.417 839.235 469.529C841.118 470.639 841.742 473.066 840.631 474.95Z" fill="#CDE9F9"/>
</g>
<mask id="mask4_0_608" style="mask-type:alpha" maskUnits="userSpaceOnUse" x="332" y="296" width="106" height="66">
<path d="M436.861 359.74C438.115 357.614 437.41 354.873 435.285 353.618L339.361 296.953C337.236 295.698 334.497 296.403 333.242 298.529C331.988 300.654 332.693 303.395 334.818 304.65L430.742 361.316C432.867 362.572 435.606 361.865 436.861 359.74Z" fill="url(#paint66_linear_0_608)"/>
</mask>
<g mask="url(#mask4_0_608)">
<path d="M436.861 359.74C438.115 357.614 437.41 354.873 435.285 353.618L339.361 296.953C337.236 295.698 334.497 296.403 333.242 298.529C331.988 300.654 332.693 303.395 334.818 304.65L430.742 361.316C432.867 362.572 435.606 361.865 436.861 359.74Z" fill="#E7F6FD"/>
<path d="M436.083 359.281C434.972 361.163 432.546 361.789 430.664 360.677C428.783 359.566 428.158 357.139 429.269 355.256C430.38 353.374 432.806 352.749 434.687 353.86C436.57 354.971 437.194 357.398 436.083 359.281Z" fill="#CDE9F9"/>
</g>
<mask id="mask5_0_608" style="mask-type:alpha" maskUnits="userSpaceOnUse" x="602" y="421" width="106" height="67">
<path d="M706.944 485.018C708.198 482.892 707.493 480.151 705.369 478.896L609.444 422.231C607.32 420.976 604.58 421.681 603.326 423.807C602.071 425.933 602.776 428.673 604.901 429.928L700.825 486.594C702.95 487.849 705.689 487.143 706.944 485.018Z" fill="url(#paint67_linear_0_608)"/>
</mask>
<g mask="url(#mask5_0_608)">
<path d="M706.944 485.018C708.198 482.892 707.493 480.151 705.369 478.896L609.444 422.231C607.32 420.976 604.58 421.681 603.326 423.807C602.071 425.933 602.776 428.673 604.901 429.928L700.825 486.594C702.95 487.849 705.689 487.143 706.944 485.018Z" fill="#E7F6FD"/>
<path d="M706.166 484.558C705.055 486.44 702.629 487.066 700.748 485.954C698.866 484.843 698.241 482.416 699.352 480.533C700.463 478.651 702.889 478.026 704.77 479.137C706.652 480.249 707.277 482.676 706.166 484.558Z" fill="#CDE9F9"/>
</g>
<path d="M805.8 527.057C821.603 521.944 830.272 504.982 825.161 489.171C820.051 473.36 803.096 464.688 787.292 469.801C771.489 474.914 762.82 491.876 767.931 507.687C773.041 523.497 789.996 532.17 805.8 527.057Z" fill="#E7F6FD"/>
<path d="M796.537 528.46C813.146 528.46 826.611 514.99 826.611 498.373C826.611 481.757 813.146 468.286 796.537 468.286C779.928 468.286 766.463 481.757 766.463 498.373C766.463 514.99 779.928 528.46 796.537 528.46Z" fill="url(#paint68_linear_0_608)"/>
<path d="M800.243 488.484C800.721 490.663 799.344 492.817 797.166 493.297C794.988 493.775 792.835 492.398 792.356 490.218C791.878 488.039 793.254 485.886 795.432 485.406C797.611 484.927 799.764 486.305 800.243 488.484Z" fill="url(#paint69_linear_0_608)"/>
<path d="M784.283 489.349C785.03 492.751 782.879 496.115 779.478 496.863C776.078 497.61 772.715 495.458 771.968 492.056C771.221 488.654 773.372 485.29 776.772 484.542C780.174 483.795 783.536 485.947 784.283 489.349Z" fill="url(#paint70_linear_0_608)"/>
<path d="M799.893 509.257C800.282 511.026 799.163 512.774 797.396 513.163C795.628 513.551 793.881 512.433 793.492 510.665C793.104 508.896 794.222 507.147 795.989 506.759C797.757 506.37 799.505 507.488 799.893 509.257Z" fill="url(#paint71_linear_0_608)"/>
<path d="M778.543 506.713C778.932 508.482 777.813 510.23 776.046 510.619C774.278 511.007 772.53 509.889 772.142 508.12C771.754 506.352 772.872 504.603 774.639 504.215C776.406 503.825 778.155 504.944 778.543 506.713Z" fill="url(#paint72_linear_0_608)"/>
<path d="M815.573 507.772C815.801 508.806 815.146 509.827 814.114 510.055C813.081 510.282 812.06 509.628 811.832 508.595C811.605 507.561 812.259 506.54 813.291 506.312C814.325 506.085 815.347 506.738 815.573 507.772Z" fill="url(#paint73_linear_0_608)"/>
<path d="M785.604 480.639C785.831 481.673 785.177 482.695 784.144 482.922C783.111 483.149 782.09 482.495 781.862 481.461C781.635 480.428 782.289 479.406 783.323 479.178C784.355 478.952 785.376 479.605 785.604 480.639Z" fill="url(#paint74_linear_0_608)"/>
<path d="M794.674 521.935C794.901 522.969 794.247 523.991 793.214 524.218C792.181 524.446 791.16 523.791 790.932 522.758C790.705 521.724 791.359 520.702 792.392 520.475C793.426 520.248 794.447 520.902 794.674 521.935Z" fill="url(#paint75_linear_0_608)"/>
<path d="M812.143 483.224C812.37 484.258 811.716 485.279 810.684 485.507C809.65 485.734 808.629 485.08 808.402 484.047C808.175 483.013 808.828 481.992 809.862 481.764C810.895 481.536 811.915 482.19 812.143 483.224Z" fill="url(#paint76_linear_0_608)"/>
<path d="M790.082 468.987C773.86 472.554 763.599 488.601 767.164 504.831C767.212 505.046 767.263 505.259 767.314 505.472C764.313 490.176 774.066 475.208 789.362 471.845C804.873 468.435 820.21 478.25 823.619 493.769C826.98 509.072 817.487 524.204 802.348 527.892C802.563 527.85 802.777 527.806 802.993 527.759C819.215 524.192 829.476 508.145 825.911 491.915C822.345 475.685 806.305 465.42 790.082 468.987Z" fill="url(#paint77_linear_0_608)"/>
<path d="M530.012 191.77L632.727 251.105C637.727 253.993 640.806 259.329 640.806 265.104V331.634C640.806 337.659 634.255 341.397 629.071 338.33L527.188 278.039C522.63 275.342 519.834 270.438 519.834 265.14V197.646C519.834 192.423 525.488 189.158 530.012 191.77Z" fill="url(#paint78_linear_0_608)"/>
<path d="M519.719 194.343L622.435 253.677C627.434 256.565 630.514 261.902 630.514 267.677V334.207C630.514 340.232 623.963 343.97 618.779 340.902L516.895 280.612C512.338 277.915 509.542 273.011 509.542 267.712V200.221C509.542 194.996 515.197 191.73 519.719 194.343Z" fill="#E7F6FD"/>
<path d="M622.725 341.53C621.42 341.53 620.174 341.184 619.019 340.5L517.134 280.21C512.739 277.609 510.01 272.821 510.01 267.714V200.221C510.01 196.731 512.848 193.891 516.337 193.891C517.443 193.891 518.501 194.18 519.485 194.748L622.201 254.083C627.04 256.878 630.047 262.087 630.047 267.677V334.206C630.047 338.245 626.762 341.53 622.725 341.53Z" fill="url(#paint79_linear_0_608)"/>
<path d="M516.338 194.36C517.36 194.36 518.34 194.627 519.252 195.154L621.968 254.488C626.662 257.2 629.579 262.254 629.579 267.677V334.207C629.579 337.503 626.959 341.061 622.725 341.061C621.506 341.061 620.338 340.736 619.256 340.096L517.373 279.805C513.121 277.289 510.478 272.655 510.478 267.712V200.221C510.478 196.601 513.52 194.36 516.338 194.36ZM516.338 193.423C512.794 193.423 509.542 196.259 509.542 200.221V267.714C509.542 273.013 512.338 277.917 516.895 280.613L618.779 340.904C620.051 341.657 621.405 342 622.724 342C626.783 342 630.514 338.755 630.514 334.209V267.679C630.514 261.904 627.434 256.567 622.435 253.679L519.719 194.345C518.626 193.711 517.467 193.423 516.338 193.423Z" fill="white"/>
<path d="M535.138 216.07L532.214 222.881C532.674 223.311 533.136 223.762 533.591 224.234C543.306 234.247 548.049 249.629 544.195 258.603C544.053 258.923 543.904 259.233 543.744 259.536C543.688 259.646 543.627 259.751 543.565 259.857C540.754 264.805 535.372 266.014 529.404 263.619C528.474 263.249 527.524 262.784 526.568 262.231C526.312 262.084 526.057 261.931 525.801 261.771C525.335 261.48 524.98 261.239 524.63 261.002L524.47 260.889C523.704 260.347 522.943 259.759 522.176 259.105C522.084 259.023 521.986 258.939 521.888 258.854C521.606 258.606 521.324 258.351 521.042 258.09C520.937 257.994 520.833 257.899 520.729 257.796C520.361 257.45 519.994 257.089 519.632 256.717C519.043 256.109 518.48 255.486 517.929 254.85L515.002 261.667C515.56 262.292 516.123 262.915 516.705 263.513C517.227 264.047 517.747 264.56 518.274 265.056C518.421 265.197 518.569 265.338 518.721 265.476C519.12 265.848 519.525 266.208 519.929 266.562C520.064 266.683 520.198 266.803 520.333 266.916C521.419 267.84 522.51 268.69 523.596 269.451C523.682 269.515 523.767 269.571 523.854 269.628C524.351 269.979 524.848 270.301 525.338 270.613L525.509 270.719C525.848 270.93 526.186 271.132 526.523 271.327C527.327 271.791 528.125 272.212 528.922 272.592C529.523 272.877 530.088 273.117 530.653 273.345C539.758 276.957 547.909 274.677 551.554 266.191C557.024 253.465 550.287 231.633 536.515 217.431C536.058 216.961 535.598 216.509 535.138 216.07Z" fill="url(#paint80_linear_0_608)"/>
<path d="M579.253 247.887L579.244 250.978C579.24 252.801 577.266 253.934 575.691 253.02L561.12 244.562C560.388 244.137 559.938 243.354 559.941 242.508L559.95 239.417C559.954 237.595 561.928 236.462 563.503 237.377L578.073 245.834C578.805 246.258 579.255 247.041 579.253 247.887Z" fill="#E7F6FD"/>
<path d="M625.346 289.873L625.338 292.97C625.332 294.789 623.364 295.923 621.788 295.013L561.08 259.948C560.345 259.523 559.894 258.739 559.896 257.891L559.905 254.794C559.91 252.975 561.88 251.842 563.455 252.751L624.164 287.816C624.898 288.241 625.349 289.024 625.346 289.873Z" fill="#E7F6FD"/>
<g opacity="0.53">
<g opacity="0.53">
<path opacity="0.53" d="M600.229 306.189L600.221 309.286C600.215 311.106 598.247 312.24 596.672 311.329L560.991 290.721C560.258 290.297 559.806 289.512 559.809 288.664L559.818 285.567C559.822 283.747 561.792 282.614 563.367 283.523L599.046 304.132C599.781 304.556 600.232 305.341 600.229 306.189Z" fill="#E7F6FD"/>
</g>
</g>
<path d="M615.889 299.821L615.88 302.919C615.876 304.738 613.906 305.872 612.331 304.962L561.036 275.334C560.302 274.909 559.851 274.125 559.853 273.277L559.862 270.179C559.866 268.36 561.837 267.227 563.411 268.136L614.707 297.765C615.439 298.189 615.892 298.973 615.889 299.821Z" fill="#E7F6FD"/>
<path d="M301.115 778.236C283.787 768.226 283.787 751.791 301.115 741.713C318.443 731.635 346.8 731.635 364.129 741.713C381.457 751.791 381.457 768.226 364.129 778.236C346.801 788.246 318.443 788.245 301.115 778.236Z" fill="#2A2F6D"/>
<path d="M304.026 763.828C287.416 755.147 287.416 740.892 304.026 732.151C320.636 723.411 347.816 723.411 364.426 732.151C381.037 740.892 381.037 755.147 364.426 763.828C347.816 772.51 320.636 772.51 304.026 763.828Z" fill="#2A2F6D"/>
<path d="M376.93 749.323H376.286V764.04H376.93V749.323Z" fill="#2A2F6D"/>
<path d="M376.924 747.297L370.525 737.248L363.635 732.631C357.697 730.1 350.406 728.862 342.685 728.862V729.511C343.916 729.511 345.131 729.544 346.326 729.608C341.684 729.526 336.289 729.826 330.146 730.553C334.288 729.87 338.503 729.511 342.681 729.511L342.684 728.862C342.683 728.862 342.682 728.862 342.681 728.862C330.055 728.863 316.287 732.167 305.456 738.51C304.688 738.96 303.955 739.422 303.24 739.888L288.965 741.603V760.97C288.965 760.97 288.979 760.976 289.002 760.984C289.247 766.244 292.38 771.126 298.58 774.756C305.042 778.541 313.823 780.379 323.24 780.379C335.866 780.379 349.634 777.073 360.465 770.73C371.335 764.363 376.967 756.269 376.928 748.852C376.987 747.864 376.924 747.297 376.924 747.297ZM314.239 779.115C312.267 778.837 310.369 778.467 308.563 778.009C310.511 778.468 312.402 778.829 314.239 779.115ZM308.348 777.956C308.274 777.938 308.2 777.918 308.126 777.898C308.202 777.917 308.272 777.938 308.348 777.956Z" fill="#2A2F6D"/>
<path d="M330.983 767.301C328.691 767.301 326.228 767.25 323.234 767.142C312.349 766.746 307.092 765.404 298.781 760.892C292.815 757.654 289.498 752.717 289.44 746.991H289.411V628.699L289.44 628.698C289.39 618.963 297.765 608.787 305.671 604.154C316.485 597.814 330.434 597.283 342.661 597.282C353.634 597.282 362.672 601.619 367.084 604.205C369.618 605.69 371.667 607.41 373.196 609.316L372.687 609.709C373.142 610.323 373.547 610.902 373.922 611.48L374.467 611.141C375.43 612.759 376.051 614.485 376.312 616.297L376.337 616.471L376.33 616.49L376.343 616.598C376.433 617.335 376.463 618.079 376.435 618.81L376.431 618.93L376.464 618.996V745.429L376.438 745.428C376.265 752.583 371.128 757.938 360.272 762.284C351.484 765.8 342.725 767.301 330.983 767.301Z" fill="url(#paint81_linear_0_608)"/>
<path d="M342.662 597.751C353.524 597.751 362.477 602.047 366.847 604.608C369.324 606.06 371.327 607.738 372.819 609.594L372.311 609.988C372.762 610.595 373.161 611.167 373.53 611.735L374.073 611.397C374.999 612.957 375.597 614.62 375.847 616.364L375.856 616.425L375.851 616.439L375.877 616.653C375.964 617.367 375.993 618.086 375.966 618.792L375.957 619.042L375.995 619.114V744.595H375.967L375.969 745.415C375.802 752.359 370.758 757.581 360.097 761.849C351.371 765.342 342.667 766.832 330.991 766.832C328.703 766.832 326.244 766.782 323.253 766.673C312.454 766.282 307.241 764.951 299.006 760.48C293.197 757.326 289.966 752.534 289.91 746.986H289.881V628.696H289.909C289.891 625.02 291.35 620.509 293.913 616.32C295.972 612.954 299.724 608.182 305.909 604.558C316.624 598.278 330.499 597.752 342.662 597.751H342.662ZM342.662 596.814C342.661 596.814 342.661 596.814 342.66 596.814C330.033 596.815 316.265 597.401 305.434 603.749C294.565 610.12 288.933 621.28 288.972 628.701L288.943 625.644V749.285L288.972 746.995C289.028 752.458 292.034 757.761 298.558 761.303C307.016 765.894 312.48 767.22 323.218 767.609C325.894 767.706 328.476 767.768 330.99 767.768C341.274 767.768 350.438 766.723 360.444 762.718C371.856 758.149 376.732 752.542 376.903 745.437L376.901 744.593C376.909 744.877 376.91 745.158 376.903 745.437L376.93 760.601V618.896C376.918 618.873 376.914 618.851 376.901 618.829C376.931 618.059 376.898 617.296 376.807 616.541C376.872 616.351 376.93 616.23 376.93 616.23H376.774C376.093 611.486 372.984 607.12 367.32 603.801C360.857 600.013 352.077 596.814 342.662 596.814ZM374.314 611.225C373.957 610.674 373.546 610.081 373.062 609.43C373.529 610.011 373.947 610.61 374.314 611.225Z" fill="white"/>
<g opacity="0.5">
<path opacity="0.5" d="M376.09 747.756V624.022C376.09 624.022 368.334 611.501 355.004 612.843C341.673 614.185 339.521 621.787 339.521 621.787V759.516C339.521 759.516 339.687 762.877 341.853 764.04C348.414 767.561 358.475 765.967 373.827 753.936C376.094 752.16 375.096 750.77 376.09 747.756Z" fill="url(#paint82_linear_0_608)"/>
</g>
<path opacity="0.43" d="M321.207 742.412C323.065 740.412 324.224 737.626 324.224 734.544C324.224 728.477 319.744 723.54 314.238 723.54C308.731 723.54 304.252 728.476 304.252 734.544C304.252 737.627 305.411 740.412 307.269 742.412C307.325 742.472 307.385 742.525 307.441 742.583C307.604 742.75 307.766 742.917 307.938 743.072C308.109 743.227 308.29 743.369 308.47 743.511C308.54 743.565 308.606 743.626 308.677 743.679C308.923 743.862 309.179 744.032 309.441 744.191C309.456 744.2 309.47 744.211 309.485 744.22C310.322 744.721 311.231 745.095 312.195 745.315C312.206 745.317 312.217 745.321 312.229 745.324C312.519 745.39 312.815 745.436 313.114 745.473C313.15 745.478 313.185 745.487 313.221 745.491C313.556 745.528 313.894 745.548 314.238 745.548C314.242 745.548 314.245 745.547 314.249 745.547C314.588 745.547 314.924 745.527 315.254 745.491C315.298 745.486 315.339 745.475 315.382 745.469C315.674 745.433 315.963 745.387 316.246 745.323C316.263 745.319 316.28 745.313 316.298 745.308C317.255 745.087 318.159 744.716 318.99 744.218C319.007 744.208 319.023 744.196 319.041 744.185C319.3 744.028 319.554 743.859 319.798 743.678C319.872 743.623 319.939 743.561 320.012 743.505C320.191 743.364 320.369 743.224 320.538 743.071C320.711 742.916 320.874 742.747 321.037 742.579C321.093 742.523 321.152 742.471 321.207 742.412Z" fill="#2A2F6D"/>
<path d="M314.54 730.6C313.89 729.263 312.319 728.685 310.956 729.276C308.178 730.479 304.801 731.592 301.045 732.567C280.781 737.83 249.481 739.066 241.291 728.306C235.525 720.74 242.873 706.46 261.986 688.097C278.122 672.58 284.796 659.358 282.409 647.662C278.675 629.411 253.384 619.841 231.06 611.394C214.278 605.036 196.924 598.472 196.26 590.437C195.165 577.084 208.587 562.719 220.034 553.018C229.733 544.8 239.721 538.467 244.085 535.827C245.344 535.066 245.769 533.445 245.048 532.162L244.502 531.19C243.75 529.854 242.048 529.397 240.734 530.185C229.909 536.685 187.507 563.94 189.736 590.979C190.737 603.134 208.353 609.802 228.748 617.518C249.481 625.365 272.974 634.261 275.988 648.981C277.87 658.158 271.627 669.732 257.437 683.367C234.982 704.961 227.803 721.413 236.077 732.276C242.068 740.142 255.565 743.045 270.157 743.045C281.136 743.045 292.733 741.397 302.196 738.971C307.391 737.642 311.94 736.078 315.394 734.42V734.364C315.394 733.004 315.086 731.721 314.54 730.6Z" fill="#198ACB"/>
<path d="M322.884 703.662C327.756 703.662 331.706 699.71 331.706 694.836C331.706 689.961 327.756 686.01 322.884 686.01C318.012 686.01 314.062 689.961 314.062 694.836C314.062 699.71 318.012 703.662 322.884 703.662Z" fill="url(#paint83_linear_0_608)"/>
<path d="M335.831 720.801C339.189 720.801 341.912 718.077 341.912 714.717C341.912 711.357 339.189 708.633 335.831 708.633C332.472 708.633 329.749 711.357 329.749 714.717C329.749 718.077 332.472 720.801 335.831 720.801Z" fill="url(#paint84_linear_0_608)"/>
<path d="M350.619 728.976C352.749 728.976 354.475 727.249 354.475 725.119C354.475 722.988 352.749 721.261 350.619 721.261C348.49 721.261 346.764 722.988 346.764 725.119C346.764 727.249 348.49 728.976 350.619 728.976Z" fill="url(#paint85_linear_0_608)"/>
<path d="M709.443 528.324C716.179 528.324 721.64 522.861 721.64 516.122C721.64 509.383 716.179 503.919 709.443 503.919C702.707 503.919 697.246 509.383 697.246 516.122C697.246 522.861 702.707 528.324 709.443 528.324Z" fill="url(#paint86_linear_0_608)"/>
<path d="M777.362 410.469C784.098 410.469 789.559 405.006 789.559 398.267C789.559 391.528 784.098 386.064 777.362 386.064C770.626 386.064 765.165 391.528 765.165 398.267C765.165 405.006 770.626 410.469 777.362 410.469Z" fill="url(#paint87_linear_0_608)"/>
<path d="M544.037 351.106C550.774 351.106 556.235 345.643 556.235 338.904C556.235 332.164 550.774 326.701 544.037 326.701C537.301 326.701 531.84 332.164 531.84 338.904C531.84 345.643 537.301 351.106 544.037 351.106Z" fill="url(#paint88_linear_0_608)"/>
<path d="M472.805 465.861C479.541 465.861 485.002 460.397 485.002 453.658C485.002 446.919 479.541 441.456 472.805 441.456C466.069 441.456 460.608 446.919 460.608 453.658C460.608 460.397 466.069 465.861 472.805 465.861Z" fill="url(#paint89_linear_0_608)"/>
<path d="M887.79 495.17C894.527 495.17 899.988 489.706 899.988 482.967C899.988 476.228 894.527 470.765 887.79 470.765C881.054 470.765 875.594 476.228 875.594 482.967C875.594 489.706 881.054 495.17 887.79 495.17Z" fill="url(#paint90_linear_0_608)"/>
</g>
<defs>
<linearGradient id="paint0_linear_0_608" x1="99.1216" y1="620.013" x2="958.408" y2="620.013" gradientUnits="userSpaceOnUse">
<stop stop-color="#BD8AAE"/>
<stop offset="1" stop-color="#2484C6" stop-opacity="0"/>
</linearGradient>
<linearGradient id="paint1_linear_0_608" x1="98.4968" y1="391.938" x2="958.478" y2="391.938" gradientUnits="userSpaceOnUse">
<stop offset="0.0536" stop-color="#1F479A"/>
<stop offset="0.2572" stop-color="#3C7FBE"/>
<stop offset="0.6965" stop-color="#28A8E0"/>
<stop offset="0.9493" stop-color="#29ABE2" stop-opacity="0"/>
</linearGradient>
<linearGradient id="paint2_linear_0_608" x1="28.984" y1="684.047" x2="274.738" y2="684.047" gradientUnits="userSpaceOnUse">
<stop offset="0.2572" stop-color="#3C7FBE"/>
<stop offset="0.6965" stop-color="#28A8E0"/>
<stop offset="0.9493" stop-color="#29ABE2" stop-opacity="0"/>
</linearGradient>
<linearGradient id="paint3_linear_0_608" x1="664.374" y1="411.522" x2="773.754" y2="411.522" gradientUnits="userSpaceOnUse">
<stop offset="0.2572" stop-color="#3C7FBE"/>
<stop offset="0.6965" stop-color="#28A8E0"/>
<stop offset="0.9493" stop-color="#29ABE2" stop-opacity="0"/>
</linearGradient>
<linearGradient id="paint4_linear_0_608" x1="419.037" y1="372.928" x2="484.328" y2="372.928" gradientUnits="userSpaceOnUse">
<stop offset="0.2572" stop-color="#3C7FBE"/>
<stop offset="0.6965" stop-color="#28A8E0"/>
<stop offset="0.9493" stop-color="#29ABE2" stop-opacity="0"/>
</linearGradient>
<linearGradient id="paint5_linear_0_608" x1="779.197" y1="531.242" x2="814.837" y2="531.242" gradientUnits="userSpaceOnUse">
<stop offset="0.2572" stop-color="#3C7FBE"/>
<stop offset="0.6965" stop-color="#28A8E0"/>
<stop offset="0.9493" stop-color="#29ABE2" stop-opacity="0"/>
</linearGradient>
<linearGradient id="paint6_linear_0_608" x1="269.674" y1="779.626" x2="386.545" y2="779.626" gradientUnits="userSpaceOnUse">
<stop offset="0.2572" stop-color="#3C7FBE"/>
<stop offset="0.6965" stop-color="#28A8E0"/>
<stop offset="0.9493" stop-color="#29ABE2" stop-opacity="0"/>
</linearGradient>
<linearGradient id="paint7_linear_0_608" x1="667.662" y1="260.489" x2="964.956" y2="260.489" gradientUnits="userSpaceOnUse">
<stop offset="0.0607" stop-color="#28A8E0"/>
<stop offset="0.9984" stop-color="#29ABE2" stop-opacity="0"/>
</linearGradient>
<linearGradient id="paint8_linear_0_608" x1="687.081" y1="181.085" x2="764.331" y2="181.085" gradientUnits="userSpaceOnUse">
<stop offset="0.0607" stop-color="#28A8E0"/>
<stop offset="0.9984" stop-color="#29ABE2" stop-opacity="0"/>
</linearGradient>
<linearGradient id="paint9_linear_0_608" x1="801.063" y1="331.885" x2="839.365" y2="331.885" gradientUnits="userSpaceOnUse">
<stop stop-color="#21409A"/>
<stop offset="0.9984" stop-color="#BD8AAE"/>
</linearGradient>
<linearGradient id="paint10_linear_0_608" x1="131.449" y1="470.17" x2="172.273" y2="470.17" gradientUnits="userSpaceOnUse">
<stop stop-color="#21409A"/>
<stop offset="0.9984" stop-color="#BD8AAE"/>
</linearGradient>
<linearGradient id="paint11_linear_0_608" x1="367.063" y1="630.38" x2="408.025" y2="630.38" gradientUnits="userSpaceOnUse">
<stop stop-color="#21409A"/>
<stop offset="0.9984" stop-color="#BD8AAE"/>
</linearGradient>
<linearGradient id="paint12_linear_0_608" x1="305.501" y1="416.473" x2="384.758" y2="416.473" gradientUnits="userSpaceOnUse">
<stop stop-color="#CDE9F9"/>
<stop offset="0.5583" stop-color="#E7F6FD"/>
</linearGradient>
<linearGradient id="paint13_linear_0_608" x1="305.501" y1="417.378" x2="337.819" y2="417.378" gradientUnits="userSpaceOnUse">
<stop stop-color="#BD8AAE"/>
<stop offset="1" stop-color="#2484C6" stop-opacity="0"/>
</linearGradient>
<linearGradient id="paint14_linear_0_608" x1="77.8691" y1="572.676" x2="395.45" y2="572.676" gradientUnits="userSpaceOnUse">
<stop offset="0.0607" stop-color="#28A8E0"/>
<stop offset="0.9984" stop-color="#29ABE2" stop-opacity="0"/>
</linearGradient>
<linearGradient id="paint15_linear_0_608" x1="218.996" y1="581.871" x2="362.282" y2="581.871" gradientUnits="userSpaceOnUse">
<stop stop-color="#BD8AAE"/>
<stop offset="1" stop-color="#2484C6" stop-opacity="0"/>
</linearGradient>
<linearGradient id="paint16_linear_0_608" x1="118.927" y1="596.487" x2="249.303" y2="596.487" gradientUnits="userSpaceOnUse">
<stop stop-color="#2484C6" stop-opacity="0"/>
<stop offset="0.9639" stop-color="#AECFDC"/>
</linearGradient>
<linearGradient id="paint17_linear_0_608" x1="233.966" y1="496.312" x2="341.913" y2="496.312" gradientUnits="userSpaceOnUse">
<stop offset="0.0607" stop-color="#28A8E0"/>
<stop offset="0.9984" stop-color="#29ABE2" stop-opacity="0"/>
</linearGradient>
<linearGradient id="paint18_linear_0_608" x1="163.49" y1="473.439" x2="258.7" y2="473.439" gradientUnits="userSpaceOnUse">
<stop stop-color="#2484C6" stop-opacity="0"/>
<stop offset="0.9639" stop-color="#AECFDC"/>
</linearGradient>
<linearGradient id="paint19_linear_0_608" x1="344.679" y1="549.632" x2="385.052" y2="549.632" gradientUnits="userSpaceOnUse">
<stop stop-color="#BD8AAE"/>
<stop offset="1" stop-color="#2484C6" stop-opacity="0"/>
</linearGradient>
<linearGradient id="paint20_linear_0_608" x1="346.138" y1="408.52" x2="384.758" y2="408.52" gradientUnits="userSpaceOnUse">
<stop stop-color="#21409A"/>
<stop offset="0.9984" stop-color="#BD8AAE"/>
</linearGradient>
<linearGradient id="paint21_linear_0_608" x1="335.248" y1="427.077" x2="346.965" y2="427.077" gradientUnits="userSpaceOnUse">
<stop stop-color="#CDE9F9"/>
<stop offset="0.5583" stop-color="#E7F6FD"/>
</linearGradient>
<linearGradient id="paint22_linear_0_608" x1="233.966" y1="501.353" x2="341.913" y2="501.353" gradientUnits="userSpaceOnUse">
<stop stop-color="#BD8AAE"/>
<stop offset="1" stop-color="#2484C6" stop-opacity="0"/>
</linearGradient>
<linearGradient id="paint23_linear_0_608" x1="274.186" y1="618.533" x2="300.989" y2="618.533" gradientUnits="userSpaceOnUse">
<stop stop-color="#BD8AAE"/>
<stop offset="1" stop-color="#2484C6" stop-opacity="0"/>
</linearGradient>
<linearGradient id="paint24_linear_0_608" x1="183.924" y1="684.328" x2="241.179" y2="684.328" gradientUnits="userSpaceOnUse">
<stop stop-color="#BD8AAE"/>
<stop offset="1" stop-color="#2484C6" stop-opacity="0"/>
</linearGradient>
<linearGradient id="paint25_linear_0_608" x1="130.737" y1="626.463" x2="184.386" y2="626.463" gradientUnits="userSpaceOnUse">
<stop stop-color="#2484C6" stop-opacity="0"/>
<stop offset="0.9639" stop-color="#AECFDC"/>
</linearGradient>
<linearGradient id="paint26_linear_0_608" x1="167.179" y1="615.474" x2="255.313" y2="615.474" gradientUnits="userSpaceOnUse">
<stop stop-color="#2484C6" stop-opacity="0"/>
<stop offset="0.9639" stop-color="#AECFDC"/>
</linearGradient>
<linearGradient id="paint27_linear_0_608" x1="259.711" y1="524.04" x2="395.45" y2="524.04" gradientUnits="userSpaceOnUse">
<stop stop-color="#BD8AAE"/>
<stop offset="1" stop-color="#2484C6" stop-opacity="0"/>
</linearGradient>
<linearGradient id="paint28_linear_0_608" x1="576.154" y1="729.031" x2="395.969" y2="601.746" gradientUnits="userSpaceOnUse">
<stop stop-color="#21409A"/>
<stop offset="0.9984" stop-color="#29ABE2" stop-opacity="0"/>
</linearGradient>
<linearGradient id="paint29_linear_0_608" x1="623.178" y1="662.464" x2="442.993" y2="535.179" gradientUnits="userSpaceOnUse">
<stop stop-color="#21409A"/>
<stop offset="0.9984" stop-color="#29ABE2" stop-opacity="0"/>
</linearGradient>
<linearGradient id="paint30_linear_0_608" x1="666.031" y1="601.802" x2="485.845" y2="474.517" gradientUnits="userSpaceOnUse">
<stop stop-color="#21409A"/>
<stop offset="0.9984" stop-color="#29ABE2" stop-opacity="0"/>
</linearGradient>
<linearGradient id="paint31_linear_0_608" x1="513.797" y1="518.788" x2="549.472" y2="518.788" gradientUnits="userSpaceOnUse">
<stop offset="0.0607" stop-color="#28A8E0"/>
<stop offset="0.9984" stop-color="#29ABE2" stop-opacity="0"/>
</linearGradient>
<linearGradient id="paint32_linear_0_608" x1="496.749" y1="625.803" x2="552.458" y2="625.803" gradientUnits="userSpaceOnUse">
<stop offset="0.0607" stop-color="#28A8E0"/>
<stop offset="0.9984" stop-color="#29ABE2" stop-opacity="0"/>
</linearGradient>
<linearGradient id="paint33_linear_0_608" x1="599.769" y1="582.346" x2="628.727" y2="582.346" gradientUnits="userSpaceOnUse">
<stop offset="0.0607" stop-color="#28A8E0"/>
<stop offset="0.9984" stop-color="#29ABE2" stop-opacity="0"/>
</linearGradient>
<linearGradient id="paint34_linear_0_608" x1="413.564" y1="600.749" x2="679.312" y2="600.749" gradientUnits="userSpaceOnUse">
<stop offset="0.0607" stop-color="#28A8E0"/>
<stop offset="0.9984" stop-color="#29ABE2" stop-opacity="0"/>
</linearGradient>
<linearGradient id="paint35_linear_0_608" x1="441.514" y1="596.511" x2="470.472" y2="596.511" gradientUnits="userSpaceOnUse">
<stop offset="0.0607" stop-color="#28A8E0"/>
<stop offset="0.9984" stop-color="#29ABE2" stop-opacity="0"/>
</linearGradient>
<linearGradient id="paint36_linear_0_608" x1="605.785" y1="659.689" x2="622.711" y2="659.689" gradientUnits="userSpaceOnUse">
<stop offset="0.0607" stop-color="#28A8E0"/>
<stop offset="0.9984" stop-color="#29ABE2" stop-opacity="0"/>
</linearGradient>
<linearGradient id="paint37_linear_0_608" x1="493.71" y1="684.047" x2="510.636" y2="684.047" gradientUnits="userSpaceOnUse">
<stop offset="0.0607" stop-color="#28A8E0"/>
<stop offset="0.9984" stop-color="#29ABE2" stop-opacity="0"/>
</linearGradient>
<linearGradient id="paint38_linear_0_608" x1="394.522" y1="319.535" x2="502.786" y2="318.063" gradientUnits="userSpaceOnUse">
<stop stop-color="#1592D1"/>
<stop offset="1" stop-color="#82CDBD"/>
</linearGradient>
<linearGradient id="paint39_linear_0_608" x1="394.522" y1="319.535" x2="502.786" y2="318.063" gradientUnits="userSpaceOnUse">
<stop stop-color="#BD8AAE"/>
<stop offset="1" stop-color="#2484C6" stop-opacity="0"/>
</linearGradient>
<linearGradient id="paint40_linear_0_608" x1="449.469" y1="346.337" x2="439.938" y2="357.37" gradientUnits="userSpaceOnUse">
<stop stop-color="#1592D1"/>
<stop offset="1" stop-color="#40C4DC"/>
</linearGradient>
<linearGradient id="paint41_linear_0_608" x1="482.099" y1="292.114" x2="467.216" y2="309.342" gradientUnits="userSpaceOnUse">
<stop stop-color="#1592D1"/>
<stop offset="1" stop-color="#40C4DC"/>
</linearGradient>
<linearGradient id="paint42_linear_0_608" x1="467.308" y1="312.475" x2="459.572" y2="321.43" gradientUnits="userSpaceOnUse">
<stop stop-color="#1592D1"/>
<stop offset="1" stop-color="#40C4DC"/>
</linearGradient>
<linearGradient id="paint43_linear_0_608" x1="421.334" y1="296.061" x2="413.597" y2="305.017" gradientUnits="userSpaceOnUse">
<stop stop-color="#1592D1"/>
<stop offset="1" stop-color="#40C4DC"/>
</linearGradient>
<linearGradient id="paint44_linear_0_608" x1="477.584" y1="339.753" x2="473.062" y2="344.987" gradientUnits="userSpaceOnUse">
<stop stop-color="#1592D1"/>
<stop offset="1" stop-color="#40C4DC"/>
</linearGradient>
<linearGradient id="paint45_linear_0_608" x1="444.33" y1="289.984" x2="439.808" y2="295.218" gradientUnits="userSpaceOnUse">
<stop stop-color="#1592D1"/>
<stop offset="1" stop-color="#40C4DC"/>
</linearGradient>
<linearGradient id="paint46_linear_0_608" x1="394.486" y1="318.829" x2="502.758" y2="318.829" gradientUnits="userSpaceOnUse">
<stop offset="0.0607" stop-color="#28A8E0"/>
<stop offset="0.9984" stop-color="#29ABE2" stop-opacity="0"/>
</linearGradient>
<linearGradient id="paint47_linear_0_608" x1="446.835" y1="295.076" x2="449.847" y2="331.355" gradientUnits="userSpaceOnUse">
<stop stop-color="#666666"/>
<stop offset="1" stop-color="#999999"/>
</linearGradient>
<linearGradient id="paint48_linear_0_608" x1="722.918" y1="300.291" x2="700.268" y2="373.039" gradientUnits="userSpaceOnUse">
<stop stop-color="#BD8AAE"/>
<stop offset="1" stop-color="#2484C6" stop-opacity="0"/>
</linearGradient>
<linearGradient id="paint49_linear_0_608" x1="707.849" y1="373.615" x2="724.761" y2="296.336" gradientUnits="userSpaceOnUse">
<stop stop-color="#BD8AAE"/>
<stop offset="1" stop-color="#2484C6" stop-opacity="0"/>
</linearGradient>
<linearGradient id="paint50_linear_0_608" x1="721.043" y1="372.32" x2="717.721" y2="341.83" gradientUnits="userSpaceOnUse">
<stop stop-color="#BD8AAE"/>
<stop offset="1" stop-color="#2484C6" stop-opacity="0"/>
</linearGradient>
<linearGradient id="paint51_linear_0_608" x1="720.479" y1="384.828" x2="732.893" y2="328.106" gradientUnits="userSpaceOnUse">
<stop stop-color="#BD8AAE"/>
<stop offset="1" stop-color="#2484C6" stop-opacity="0"/>
</linearGradient>
<linearGradient id="paint52_linear_0_608" x1="740.172" y1="396.265" x2="737.756" y2="370.605" gradientUnits="userSpaceOnUse">
<stop stop-color="#BD8AAE"/>
<stop offset="1" stop-color="#2484C6" stop-opacity="0"/>
</linearGradient>
<linearGradient id="paint53_linear_0_608" x1="638.207" y1="329.135" x2="789.684" y2="329.135" gradientUnits="userSpaceOnUse">
<stop stop-color="#64CDF6"/>
<stop offset="1" stop-color="white" stop-opacity="0"/>
</linearGradient>
<linearGradient id="paint54_linear_0_608" x1="493.96" y1="302.438" x2="514.392" y2="302.438" gradientUnits="userSpaceOnUse">
<stop stop-color="#CDE8F9"/>
<stop offset="1" stop-color="white" stop-opacity="0"/>
</linearGradient>
<linearGradient id="paint55_linear_0_608" x1="619.599" y1="386.364" x2="640.031" y2="386.364" gradientUnits="userSpaceOnUse">
<stop stop-color="#CDE8F9"/>
<stop offset="1" stop-color="white" stop-opacity="0"/>
</linearGradient>
<linearGradient id="paint56_linear_0_608" x1="397.809" y1="375.527" x2="418.241" y2="375.527" gradientUnits="userSpaceOnUse">
<stop stop-color="#CDE8F9"/>
<stop offset="1" stop-color="white" stop-opacity="0"/>
</linearGradient>
<linearGradient id="paint57_linear_0_608" x1="715.49" y1="585.645" x2="735.922" y2="585.645" gradientUnits="userSpaceOnUse">
<stop stop-color="#CDE8F9"/>
<stop offset="1" stop-color="white" stop-opacity="0"/>
</linearGradient>
<linearGradient id="paint58_linear_0_608" x1="831.512" y1="424.777" x2="851.944" y2="424.777" gradientUnits="userSpaceOnUse">
<stop stop-color="#CDE8F9"/>
<stop offset="1" stop-color="white" stop-opacity="0"/>
</linearGradient>
<linearGradient id="paint59_linear_0_608" x1="182.782" y1="506.918" x2="203.213" y2="506.918" gradientUnits="userSpaceOnUse">
<stop stop-color="#CDE8F9"/>
<stop offset="1" stop-color="white" stop-opacity="0"/>
</linearGradient>
<linearGradient id="paint60_linear_0_608" x1="419.384" y1="509.211" x2="439.816" y2="509.211" gradientUnits="userSpaceOnUse">
<stop stop-color="#CDE8F9"/>
<stop offset="1" stop-color="white" stop-opacity="0"/>
</linearGradient>
<linearGradient id="paint61_linear_0_608" x1="518.017" y1="412.269" x2="538.449" y2="412.269" gradientUnits="userSpaceOnUse">
<stop stop-color="#CDE8F9"/>
<stop offset="1" stop-color="white" stop-opacity="0"/>
</linearGradient>
<linearGradient id="paint62_linear_0_608" x1="690.854" y1="473.435" x2="711.286" y2="473.435" gradientUnits="userSpaceOnUse">
<stop stop-color="#CDE8F9"/>
<stop offset="1" stop-color="white" stop-opacity="0"/>
</linearGradient>
<linearGradient id="paint63_linear_0_608" x1="521.37" y1="318.794" x2="573.981" y2="410.586" gradientUnits="userSpaceOnUse">
<stop/>
<stop offset="0.0867" stop-color="#070707"/>
<stop offset="0.217" stop-color="#1C1C1C"/>
<stop offset="0.3749" stop-color="#3E3E3E"/>
<stop offset="0.5544" stop-color="#6D6D6D"/>
<stop offset="0.7519" stop-color="#A9A9A9"/>
<stop offset="0.9617" stop-color="#F1F1F1"/>
<stop offset="1" stop-color="white"/>
</linearGradient>
<linearGradient id="paint64_linear_0_608" x1="543.355" y1="422.027" x2="595.966" y2="513.819" gradientUnits="userSpaceOnUse">
<stop/>
<stop offset="0.0867" stop-color="#070707"/>
<stop offset="0.217" stop-color="#1C1C1C"/>
<stop offset="0.3749" stop-color="#3E3E3E"/>
<stop offset="0.5544" stop-color="#6D6D6D"/>
<stop offset="0.7519" stop-color="#A9A9A9"/>
<stop offset="0.9617" stop-color="#F1F1F1"/>
<stop offset="1" stop-color="white"/>
</linearGradient>
<linearGradient id="paint65_linear_0_608" x1="763.358" y1="398.899" x2="815.969" y2="490.691" gradientUnits="userSpaceOnUse">
<stop/>
<stop offset="0.0867" stop-color="#070707"/>
<stop offset="0.217" stop-color="#1C1C1C"/>
<stop offset="0.3749" stop-color="#3E3E3E"/>
<stop offset="0.5544" stop-color="#6D6D6D"/>
<stop offset="0.7519" stop-color="#A9A9A9"/>
<stop offset="0.9617" stop-color="#F1F1F1"/>
<stop offset="1" stop-color="white"/>
</linearGradient>
<linearGradient id="paint66_linear_0_608" x1="358.804" y1="283.246" x2="411.414" y2="375.039" gradientUnits="userSpaceOnUse">
<stop/>
<stop offset="0.0867" stop-color="#070707"/>
<stop offset="0.217" stop-color="#1C1C1C"/>
<stop offset="0.3749" stop-color="#3E3E3E"/>
<stop offset="0.5544" stop-color="#6D6D6D"/>
<stop offset="0.7519" stop-color="#A9A9A9"/>
<stop offset="0.9617" stop-color="#F1F1F1"/>
<stop offset="1" stop-color="white"/>
</linearGradient>
<linearGradient id="paint67_linear_0_608" x1="628.893" y1="408.514" x2="681.504" y2="500.306" gradientUnits="userSpaceOnUse">
<stop/>
<stop offset="0.0867" stop-color="#070707"/>
<stop offset="0.217" stop-color="#1C1C1C"/>
<stop offset="0.3749" stop-color="#3E3E3E"/>
<stop offset="0.5544" stop-color="#6D6D6D"/>
<stop offset="0.7519" stop-color="#A9A9A9"/>
<stop offset="0.9617" stop-color="#F1F1F1"/>
<stop offset="1" stop-color="white"/>
</linearGradient>
<linearGradient id="paint68_linear_0_608" x1="767.222" y1="504.815" x2="825.974" y2="491.91" gradientUnits="userSpaceOnUse">
<stop offset="0.0607" stop-color="#28A8E0"/>
<stop offset="0.9984" stop-color="#29ABE2" stop-opacity="0"/>
</linearGradient>
<linearGradient id="paint69_linear_0_608" x1="798.297" y1="485.865" x2="794.344" y2="492.935" gradientUnits="userSpaceOnUse">
<stop stop-color="#21409A"/>
<stop offset="0.9984" stop-color="#29ABE2" stop-opacity="0"/>
</linearGradient>
<linearGradient id="paint70_linear_0_608" x1="781.21" y1="485.269" x2="775.038" y2="496.31" gradientUnits="userSpaceOnUse">
<stop stop-color="#21409A"/>
<stop offset="0.9984" stop-color="#29ABE2" stop-opacity="0"/>
</linearGradient>
<linearGradient id="paint71_linear_0_608" x1="798.326" y1="507.129" x2="795.118" y2="512.868" gradientUnits="userSpaceOnUse">
<stop stop-color="#21409A"/>
<stop offset="0.9984" stop-color="#29ABE2" stop-opacity="0"/>
</linearGradient>
<linearGradient id="paint72_linear_0_608" x1="776.974" y1="504.585" x2="773.766" y2="510.324" gradientUnits="userSpaceOnUse">
<stop stop-color="#21409A"/>
<stop offset="0.9984" stop-color="#29ABE2" stop-opacity="0"/>
</linearGradient>
<linearGradient id="paint73_linear_0_608" x1="814.683" y1="506.521" x2="812.808" y2="509.875" gradientUnits="userSpaceOnUse">
<stop stop-color="#21409A"/>
<stop offset="0.9984" stop-color="#29ABE2" stop-opacity="0"/>
</linearGradient>
<linearGradient id="paint74_linear_0_608" x1="784.71" y1="479.388" x2="782.835" y2="482.742" gradientUnits="userSpaceOnUse">
<stop stop-color="#21409A"/>
<stop offset="0.9984" stop-color="#29ABE2" stop-opacity="0"/>
</linearGradient>
<linearGradient id="paint75_linear_0_608" x1="793.783" y1="520.686" x2="791.908" y2="524.04" gradientUnits="userSpaceOnUse">
<stop stop-color="#21409A"/>
<stop offset="0.9984" stop-color="#29ABE2" stop-opacity="0"/>
</linearGradient>
<linearGradient id="paint76_linear_0_608" x1="811.251" y1="481.972" x2="809.376" y2="485.326" gradientUnits="userSpaceOnUse">
<stop stop-color="#21409A"/>
<stop offset="0.9984" stop-color="#29ABE2" stop-opacity="0"/>
</linearGradient>
<linearGradient id="paint77_linear_0_608" x1="766.457" y1="498.086" x2="826.617" y2="498.086" gradientUnits="userSpaceOnUse">
<stop offset="0.0607" stop-color="#28A8E0"/>
<stop offset="0.9984" stop-color="#29ABE2" stop-opacity="0"/>
</linearGradient>
<linearGradient id="paint78_linear_0_608" x1="519.834" y1="265.138" x2="640.806" y2="265.138" gradientUnits="userSpaceOnUse">
<stop offset="0.2572" stop-color="#3C7FBE"/>
<stop offset="0.6965" stop-color="#28A8E0"/>
<stop offset="0.9493" stop-color="#29ABE2" stop-opacity="0"/>
</linearGradient>
<linearGradient id="paint79_linear_0_608" x1="510.01" y1="267.711" x2="630.047" y2="267.711" gradientUnits="userSpaceOnUse">
<stop stop-color="#BD8AAE"/>
<stop offset="1" stop-color="#2484C6" stop-opacity="0"/>
</linearGradient>
<linearGradient id="paint80_linear_0_608" x1="515.001" y1="245.533" x2="553.457" y2="245.533" gradientUnits="userSpaceOnUse">
<stop stop-color="#1592D1"/>
<stop offset="1" stop-color="#40C4DC"/>
</linearGradient>
<linearGradient id="paint81_linear_0_608" x1="289.411" y1="682.292" x2="376.462" y2="682.292" gradientUnits="userSpaceOnUse">
<stop offset="0.0607" stop-color="#28A8E0"/>
<stop offset="0.9984" stop-color="#29ABE2" stop-opacity="0"/>
</linearGradient>
<linearGradient id="paint82_linear_0_608" x1="376.09" y1="689.213" x2="339.521" y2="689.213" gradientUnits="userSpaceOnUse">
<stop offset="0.4247" stop-color="white"/>
<stop offset="1" stop-color="#2484C6" stop-opacity="0"/>
</linearGradient>
<linearGradient id="paint83_linear_0_608" x1="314.261" y1="696.673" x2="331.493" y2="692.891" gradientUnits="userSpaceOnUse">
<stop stop-color="#CDE8F9"/>
<stop offset="1" stop-color="white" stop-opacity="0"/>
</linearGradient>
<linearGradient id="paint84_linear_0_608" x1="329.879" y1="716.004" x2="341.759" y2="713.396" gradientUnits="userSpaceOnUse">
<stop stop-color="#CDE8F9"/>
<stop offset="1" stop-color="white" stop-opacity="0"/>
</linearGradient>
<linearGradient id="paint85_linear_0_608" x1="346.783" y1="725.965" x2="354.317" y2="724.313" gradientUnits="userSpaceOnUse">
<stop stop-color="#CDE8F9"/>
<stop offset="1" stop-color="white" stop-opacity="0"/>
</linearGradient>
<linearGradient id="paint86_linear_0_608" x1="697.543" y1="518.745" x2="721.369" y2="513.513" gradientUnits="userSpaceOnUse">
<stop offset="0.0607" stop-color="#28A8E0"/>
<stop offset="0.9984" stop-color="#29ABE2" stop-opacity="0"/>
</linearGradient>
<linearGradient id="paint87_linear_0_608" x1="765.46" y1="400.894" x2="789.286" y2="395.661" gradientUnits="userSpaceOnUse">
<stop offset="0.0607" stop-color="#28A8E0"/>
<stop offset="0.9984" stop-color="#29ABE2" stop-opacity="0"/>
</linearGradient>
<linearGradient id="paint88_linear_0_608" x1="532.128" y1="341.524" x2="555.955" y2="336.292" gradientUnits="userSpaceOnUse">
<stop offset="0.0607" stop-color="#28A8E0"/>
<stop offset="0.9984" stop-color="#29ABE2" stop-opacity="0"/>
</linearGradient>
<linearGradient id="paint89_linear_0_608" x1="460.899" y1="456.275" x2="484.725" y2="451.042" gradientUnits="userSpaceOnUse">
<stop stop-color="#BD8AAE"/>
<stop offset="1" stop-color="#2484C6" stop-opacity="0"/>
</linearGradient>
<linearGradient id="paint90_linear_0_608" x1="875.893" y1="485.596" x2="899.72" y2="480.363" gradientUnits="userSpaceOnUse">
<stop stop-color="#BD8AAE"/>
<stop offset="1" stop-color="#2484C6" stop-opacity="0"/>
</linearGradient>
<clipPath id="clip0_0_608">
<rect width="985" height="834.235" fill="white" transform="translate(0 0.882568)"/>
</clipPath>
</defs>
</svg>
