<svg width="442" height="39" viewBox="0 0 442 39" fill="none" xmlns="http://www.w3.org/2000/svg">
<path d="M132.913 27.5381V15.8781L130.251 17.0001L129.195 14.5581L133.617 12.4901H135.795V27.5381H132.913Z" fill="black"/>
<path d="M179.836 27.5381V24.9201C180.702 24.0694 181.501 23.2774 182.234 22.5441C182.542 22.2361 182.858 21.9208 183.18 21.5981C183.503 21.2754 183.804 20.9748 184.082 20.6961C184.361 20.4174 184.61 20.1681 184.83 19.9481C185.05 19.7134 185.219 19.5301 185.336 19.3981C185.571 19.1194 185.776 18.8701 185.952 18.6501C186.143 18.4301 186.29 18.2174 186.392 18.0121C186.51 17.7921 186.598 17.5794 186.656 17.3741C186.715 17.1541 186.744 16.9194 186.744 16.6701C186.744 16.1861 186.554 15.7681 186.172 15.4161C185.791 15.0494 185.27 14.8661 184.61 14.8661C183.95 14.8661 183.437 15.0568 183.07 15.4381C182.704 15.8048 182.454 16.2228 182.322 16.6921L179.704 15.6141C179.822 15.2181 180.012 14.8148 180.276 14.4041C180.54 13.9788 180.878 13.6048 181.288 13.2821C181.699 12.9448 182.183 12.6734 182.74 12.4681C183.312 12.2481 183.95 12.1381 184.654 12.1381C185.417 12.1381 186.106 12.2554 186.722 12.4901C187.338 12.7101 187.859 13.0181 188.284 13.4141C188.71 13.8101 189.04 14.2794 189.274 14.8221C189.509 15.3501 189.626 15.9221 189.626 16.5381C189.626 17.4768 189.392 18.3421 188.922 19.1341C188.468 19.9114 187.91 20.6374 187.25 21.3121L185.358 23.2041C184.86 23.7028 184.295 24.2601 183.664 24.8761L183.752 25.0081H189.846V27.5381H179.836Z" fill="black"/>
<path d="M237.515 27.8901C236.899 27.8901 236.305 27.8094 235.733 27.6481C235.176 27.4868 234.662 27.2448 234.193 26.9221C233.724 26.5848 233.306 26.1668 232.939 25.6681C232.587 25.1694 232.316 24.5901 232.125 23.9301L234.831 22.8521C235.022 23.5854 235.344 24.1428 235.799 24.5241C236.254 24.8908 236.826 25.0741 237.515 25.0741C237.823 25.0741 238.116 25.0301 238.395 24.9421C238.674 24.8394 238.916 24.7001 239.121 24.5241C239.326 24.3481 239.488 24.1428 239.605 23.9081C239.737 23.6588 239.803 23.3801 239.803 23.0721C239.803 22.4268 239.561 21.9208 239.077 21.5541C238.608 21.1874 237.955 21.0041 237.119 21.0041H235.821V18.3861H237.009C237.302 18.3861 237.588 18.3494 237.867 18.2761C238.146 18.2028 238.388 18.0928 238.593 17.9461C238.813 17.7848 238.982 17.5868 239.099 17.3521C239.231 17.1028 239.297 16.8168 239.297 16.4941C239.297 15.9954 239.121 15.5921 238.769 15.2841C238.417 14.9614 237.94 14.8001 237.339 14.8001C236.694 14.8001 236.195 14.9761 235.843 15.3281C235.506 15.6654 235.271 16.0468 235.139 16.4721L232.499 15.3941C232.631 15.0274 232.829 14.6534 233.093 14.2721C233.357 13.8761 233.687 13.5241 234.083 13.2161C234.494 12.8934 234.97 12.6368 235.513 12.4461C236.056 12.2408 236.679 12.1381 237.383 12.1381C238.102 12.1381 238.754 12.2408 239.341 12.4461C239.942 12.6514 240.456 12.9374 240.881 13.3041C241.306 13.6561 241.636 14.0814 241.871 14.5801C242.106 15.0641 242.223 15.5921 242.223 16.1641C242.223 16.6041 242.164 17.0001 242.047 17.3521C241.944 17.7041 241.805 18.0194 241.629 18.2981C241.453 18.5768 241.248 18.8188 241.013 19.0241C240.793 19.2148 240.566 19.3688 240.331 19.4861V19.6621C241.035 19.9408 241.614 20.3881 242.069 21.0041C242.538 21.6201 242.773 22.3974 242.773 23.3361C242.773 23.9961 242.648 24.6048 242.399 25.1621C242.15 25.7048 241.79 26.1814 241.321 26.5921C240.866 27.0028 240.316 27.3181 239.671 27.5381C239.026 27.7728 238.307 27.8901 237.515 27.8901Z" fill="black"/>
<path d="M292.674 27.5381V24.7661H285.722V22.4341L292.41 12.4901H295.534V22.0821H297.426V24.7661H295.534V27.5381H292.674ZM292.674 16.7801H292.498L288.912 22.0821H292.674V16.7801Z" fill="black"/>
<path d="M345.577 27.8901C345.005 27.8901 344.433 27.8094 343.861 27.6481C343.303 27.4868 342.783 27.2374 342.299 26.9001C341.815 26.5628 341.389 26.1448 341.023 25.6461C340.671 25.1328 340.407 24.5241 340.231 23.8201L342.849 22.8081C343.01 23.5414 343.318 24.1281 343.773 24.5681C344.242 25.0081 344.836 25.2281 345.555 25.2281C345.907 25.2281 346.229 25.1694 346.523 25.0521C346.831 24.9201 347.095 24.7441 347.315 24.5241C347.549 24.3041 347.725 24.0474 347.843 23.7541C347.975 23.4461 348.041 23.1088 348.041 22.7421C348.041 22.3901 347.975 22.0674 347.843 21.7741C347.725 21.4661 347.557 21.2021 347.337 20.9821C347.117 20.7474 346.853 20.5714 346.545 20.4541C346.251 20.3221 345.921 20.2561 345.555 20.2561C345.1 20.2561 344.697 20.3588 344.345 20.5641C343.993 20.7548 343.692 20.9968 343.443 21.2901L340.649 20.0141L341.529 12.4901H349.999V15.0201H343.927L343.355 18.5401L343.531 18.5841C343.824 18.3348 344.183 18.1221 344.609 17.9461C345.034 17.7701 345.547 17.6821 346.149 17.6821C346.779 17.6821 347.381 17.8068 347.953 18.0561C348.525 18.2908 349.031 18.6281 349.471 19.0681C349.911 19.5081 350.263 20.0434 350.527 20.6741C350.791 21.2901 350.923 21.9794 350.923 22.7421C350.923 23.4901 350.791 24.1794 350.527 24.8101C350.263 25.4408 349.889 25.9834 349.405 26.4381C348.935 26.8928 348.371 27.2521 347.711 27.5161C347.065 27.7654 346.354 27.8901 345.577 27.8901Z" fill="black"/>
<path d="M394.443 11.7861H397.897L404.233 22.3461H404.409L404.233 19.3101V11.7861H407.181V27.5381H404.057L397.369 16.3841H397.193L397.369 19.4201V27.5381H394.443V11.7861ZM420.198 24.9421C419.699 25.8221 419.024 26.5334 418.174 27.0761C417.338 27.6188 416.311 27.8901 415.094 27.8901C414.272 27.8901 413.51 27.7508 412.806 27.4721C412.116 27.1788 411.515 26.7754 411.002 26.2621C410.488 25.7488 410.085 25.1474 409.792 24.4581C409.513 23.7541 409.374 22.9841 409.374 22.1481C409.374 21.3708 409.513 20.6374 409.792 19.9481C410.07 19.2441 410.459 18.6354 410.958 18.1221C411.456 17.5941 412.043 17.1761 412.718 16.8681C413.407 16.5601 414.162 16.4061 414.984 16.4061C415.849 16.4061 416.619 16.5528 417.294 16.8461C417.968 17.1248 418.533 17.5208 418.988 18.0341C419.442 18.5328 419.787 19.1268 420.022 19.8161C420.256 20.5054 420.374 21.2534 420.374 22.0601C420.374 22.1628 420.374 22.2508 420.374 22.3241C420.359 22.4121 420.352 22.4928 420.352 22.5661C420.337 22.6394 420.33 22.7201 420.33 22.8081H412.212C412.27 23.2481 412.388 23.6294 412.564 23.9521C412.754 24.2601 412.982 24.5241 413.246 24.7441C413.524 24.9494 413.825 25.1034 414.148 25.2061C414.47 25.2941 414.8 25.3381 415.138 25.3381C415.798 25.3381 416.34 25.1914 416.766 24.8981C417.206 24.5901 417.55 24.2088 417.8 23.7541L420.198 24.9421ZM417.58 20.7621C417.565 20.5714 417.499 20.3588 417.382 20.1241C417.279 19.8894 417.118 19.6694 416.898 19.4641C416.692 19.2588 416.428 19.0901 416.106 18.9581C415.798 18.8261 415.424 18.7601 414.984 18.7601C414.368 18.7601 413.825 18.9361 413.356 19.2881C412.886 19.6401 412.556 20.1314 412.366 20.7621H417.58ZM424.684 22.0601L420.988 16.7581H424.398L426.356 19.7501H426.51L428.358 16.7581H431.878L428.094 22.0601L431.878 27.5381H428.49L426.466 24.4581H426.312L424.354 27.5381H420.944L424.684 22.0601ZM434.488 19.2221H432.596V16.7581H434.488V13.4581H437.37V16.7581H440.01V19.2221H437.37V23.4021C437.37 23.6514 437.392 23.8861 437.436 24.1061C437.495 24.3114 437.598 24.4874 437.744 24.6341C437.95 24.8688 438.243 24.9861 438.624 24.9861C438.874 24.9861 439.072 24.9641 439.218 24.9201C439.365 24.8614 439.504 24.7881 439.636 24.7001L440.45 27.2301C440.113 27.3914 439.746 27.5088 439.35 27.5821C438.969 27.6701 438.544 27.7141 438.074 27.7141C437.532 27.7141 437.04 27.6334 436.6 27.4721C436.175 27.2961 435.816 27.0614 435.522 26.7681C434.833 26.1081 434.488 25.1694 434.488 23.9521V19.2221Z" fill="#B070FF"/>
<path d="M2.39064 27.5381V11.7861H7.93464C8.68264 11.7861 9.37931 11.9108 10.0246 12.1601C10.6846 12.3948 11.2566 12.7321 11.7406 13.1721C12.2246 13.6121 12.606 14.1401 12.8846 14.7561C13.1633 15.3574 13.3026 16.0248 13.3026 16.7581C13.3026 17.5061 13.1633 18.1881 12.8846 18.8041C12.606 19.4054 12.2246 19.9261 11.7406 20.3661C11.2566 20.8061 10.6846 21.1508 10.0246 21.4001C9.37931 21.6348 8.68264 21.7521 7.93464 21.7521H5.36064V27.5381H2.39064ZM7.97864 18.9361C8.75597 18.9361 9.34264 18.7161 9.73864 18.2761C10.1346 17.8361 10.3326 17.3301 10.3326 16.7581C10.3326 16.4794 10.2813 16.2081 10.1786 15.9441C10.0906 15.6801 9.94397 15.4528 9.73864 15.2621C9.54797 15.0568 9.30597 14.8954 9.01264 14.7781C8.71931 14.6608 8.37464 14.6021 7.97864 14.6021H5.36064V18.9361H7.97864ZM15.0582 16.7581H17.7642V18.2541H17.9402C18.0722 17.9901 18.2482 17.7481 18.4682 17.5281C18.6882 17.3081 18.9302 17.1174 19.1942 16.9561C19.4728 16.7948 19.7662 16.6701 20.0742 16.5821C20.3968 16.4941 20.7122 16.4501 21.0202 16.4501C21.4015 16.4501 21.7242 16.4868 21.9882 16.5601C22.2668 16.6334 22.5015 16.7288 22.6922 16.8461L21.9222 19.4641C21.7462 19.3761 21.5482 19.3101 21.3282 19.2661C21.1228 19.2074 20.8662 19.1781 20.5582 19.1781C20.1622 19.1781 19.8028 19.2588 19.4802 19.4201C19.1575 19.5668 18.8788 19.7794 18.6442 20.0581C18.4242 20.3368 18.2482 20.6668 18.1162 21.0481C17.9988 21.4148 17.9402 21.8181 17.9402 22.2581V27.5381H15.0582V16.7581ZM33.5591 24.9421C33.0605 25.8221 32.3858 26.5334 31.5351 27.0761C30.6991 27.6188 29.6725 27.8901 28.4551 27.8901C27.6338 27.8901 26.8711 27.7508 26.1671 27.4721C25.4778 27.1788 24.8765 26.7754 24.3631 26.2621C23.8498 25.7488 23.4465 25.1474 23.1531 24.4581C22.8745 23.7541 22.7351 22.9841 22.7351 22.1481C22.7351 21.3708 22.8745 20.6374 23.1531 19.9481C23.4318 19.2441 23.8205 18.6354 24.3191 18.1221C24.8178 17.5941 25.4045 17.1761 26.0791 16.8681C26.7685 16.5601 27.5238 16.4061 28.3451 16.4061C29.2105 16.4061 29.9805 16.5528 30.6551 16.8461C31.3298 17.1248 31.8945 17.5208 32.3491 18.0341C32.8038 18.5328 33.1485 19.1268 33.3831 19.8161C33.6178 20.5054 33.7351 21.2534 33.7351 22.0601C33.7351 22.1628 33.7351 22.2508 33.7351 22.3241C33.7205 22.4121 33.7131 22.4928 33.7131 22.5661C33.6985 22.6394 33.6911 22.7201 33.6911 22.8081H25.5731C25.6318 23.2481 25.7491 23.6294 25.9251 23.9521C26.1158 24.2601 26.3431 24.5241 26.6071 24.7441C26.8858 24.9494 27.1865 25.1034 27.5091 25.2061C27.8318 25.2941 28.1618 25.3381 28.4991 25.3381C29.1591 25.3381 29.7018 25.1914 30.1271 24.8981C30.5671 24.5901 30.9118 24.2088 31.1611 23.7541L33.5591 24.9421ZM30.9411 20.7621C30.9265 20.5714 30.8605 20.3588 30.7431 20.1241C30.6405 19.8894 30.4791 19.6694 30.2591 19.4641C30.0538 19.2588 29.7898 19.0901 29.4671 18.9581C29.1591 18.8261 28.7851 18.7601 28.3451 18.7601C27.7291 18.7601 27.1865 18.9361 26.7171 19.2881C26.2478 19.6401 25.9178 20.1314 25.7271 20.7621H30.9411ZM34.2169 16.7581H37.4949L40.1789 23.6221H40.3329L43.0389 16.7581H46.2949L41.6529 27.5381H38.8149L34.2169 16.7581ZM49.213 15.1961C48.9637 15.1961 48.7217 15.1521 48.487 15.0641C48.267 14.9614 48.069 14.8294 47.893 14.6681C47.7317 14.4921 47.5997 14.2941 47.497 14.0741C47.409 13.8541 47.365 13.6121 47.365 13.3481C47.365 13.0841 47.409 12.8421 47.497 12.6221C47.5997 12.4021 47.7317 12.2114 47.893 12.0501C48.069 11.8741 48.267 11.7421 48.487 11.6541C48.7217 11.5514 48.9637 11.5001 49.213 11.5001C49.7263 11.5001 50.1663 11.6834 50.533 12.0501C50.8997 12.4021 51.083 12.8348 51.083 13.3481C51.083 13.8614 50.8997 14.3014 50.533 14.6681C50.1663 15.0201 49.7263 15.1961 49.213 15.1961ZM47.783 27.5381V16.7581H50.665V27.5381H47.783ZM58.2969 16.4061C59.1329 16.4061 59.8956 16.5528 60.5849 16.8461C61.2889 17.1248 61.8903 17.5208 62.3889 18.0341C62.9023 18.5328 63.2983 19.1341 63.5769 19.8381C63.8703 20.5421 64.0169 21.3121 64.0169 22.1481C64.0169 22.9841 63.8703 23.7541 63.5769 24.4581C63.2983 25.1621 62.9023 25.7708 62.3889 26.2841C61.8903 26.7828 61.2889 27.1788 60.5849 27.4721C59.8956 27.7508 59.1329 27.8901 58.2969 27.8901C57.4609 27.8901 56.6909 27.7508 55.9869 27.4721C55.2976 27.1788 54.6963 26.7828 54.1829 26.2841C53.6843 25.7708 53.2883 25.1621 52.9949 24.4581C52.7163 23.7541 52.5769 22.9841 52.5769 22.1481C52.5769 21.3121 52.7163 20.5421 52.9949 19.8381C53.2883 19.1341 53.6843 18.5328 54.1829 18.0341C54.6963 17.5208 55.2976 17.1248 55.9869 16.8461C56.6909 16.5528 57.4609 16.4061 58.2969 16.4061ZM58.2969 25.2281C58.6636 25.2281 59.0156 25.1621 59.3529 25.0301C59.7049 24.8834 60.0129 24.6781 60.2769 24.4141C60.5409 24.1501 60.7463 23.8274 60.8929 23.4461C61.0543 23.0648 61.1349 22.6321 61.1349 22.1481C61.1349 21.6641 61.0543 21.2314 60.8929 20.8501C60.7463 20.4688 60.5409 20.1461 60.2769 19.8821C60.0129 19.6181 59.7049 19.4201 59.3529 19.2881C59.0156 19.1414 58.6636 19.0681 58.2969 19.0681C57.9156 19.0681 57.5563 19.1414 57.2189 19.2881C56.8816 19.4201 56.5809 19.6181 56.3169 19.8821C56.0529 20.1461 55.8403 20.4688 55.6789 20.8501C55.5323 21.2314 55.4589 21.6641 55.4589 22.1481C55.4589 22.6321 55.5323 23.0648 55.6789 23.4461C55.8403 23.8274 56.0529 24.1501 56.3169 24.4141C56.5809 24.6781 56.8816 24.8834 57.2189 25.0301C57.5563 25.1621 57.9156 25.2281 58.2969 25.2281ZM73.2193 26.1301H73.0433C72.706 26.6728 72.2513 27.1054 71.6793 27.4281C71.1073 27.7361 70.4546 27.8901 69.7213 27.8901C68.3573 27.8901 67.338 27.4721 66.6633 26.6361C66.0033 25.8001 65.6733 24.6854 65.6733 23.2921V16.7581H68.5553V22.9401C68.5553 23.7174 68.724 24.2968 69.0613 24.6781C69.4133 25.0448 69.9193 25.2281 70.5793 25.2281C70.9753 25.2281 71.32 25.1474 71.6133 24.9861C71.9213 24.8101 72.178 24.5828 72.3833 24.3041C72.6033 24.0108 72.7646 23.6734 72.8673 23.2921C72.9846 22.8961 73.0433 22.4781 73.0433 22.0381V16.7581H75.9253V27.5381H73.2193V26.1301ZM82.5547 27.8901C81.8507 27.8901 81.22 27.8021 80.6627 27.6261C80.12 27.4501 79.6434 27.2228 79.2327 26.9441C78.8367 26.6508 78.4994 26.3208 78.2207 25.9541C77.942 25.5728 77.7294 25.1914 77.5827 24.8101L80.1567 23.7101C80.406 24.2674 80.736 24.6854 81.1467 24.9641C81.572 25.2281 82.0414 25.3601 82.5547 25.3601C83.0827 25.3601 83.5007 25.2648 83.8087 25.0741C84.1167 24.8834 84.2707 24.6561 84.2707 24.3921C84.2707 24.0988 84.1387 23.8641 83.8747 23.6881C83.6254 23.4974 83.1854 23.3288 82.5547 23.1821L81.0367 22.8521C80.6994 22.7788 80.3474 22.6614 79.9807 22.5001C79.6287 22.3388 79.306 22.1334 79.0127 21.8841C78.7194 21.6348 78.4774 21.3341 78.2867 20.9821C78.096 20.6301 78.0007 20.2194 78.0007 19.7501C78.0007 19.2221 78.1107 18.7528 78.3307 18.3421C78.5654 17.9314 78.8807 17.5868 79.2767 17.3081C79.6727 17.0148 80.1347 16.7948 80.6627 16.6481C81.2054 16.4868 81.7847 16.4061 82.4007 16.4061C83.4274 16.4061 84.344 16.6114 85.1507 17.0221C85.9574 17.4181 86.5514 18.0561 86.9327 18.9361L84.4467 19.9481C84.2414 19.5228 83.9407 19.2148 83.5447 19.0241C83.1487 18.8334 82.7527 18.7381 82.3567 18.7381C81.946 18.7381 81.5867 18.8261 81.2787 19.0021C80.9707 19.1634 80.8167 19.3761 80.8167 19.6401C80.8167 19.8894 80.9414 20.0874 81.1907 20.2341C81.4547 20.3808 81.8067 20.5128 82.2467 20.6301L83.8967 21.0261C84.9967 21.2901 85.8107 21.7154 86.3387 22.3021C86.8814 22.8741 87.1527 23.5561 87.1527 24.3481C87.1527 24.8174 87.0427 25.2648 86.8227 25.6901C86.6027 26.1154 86.2874 26.4968 85.8767 26.8341C85.4807 27.1568 84.9967 27.4134 84.4247 27.6041C83.8674 27.7948 83.244 27.8901 82.5547 27.8901Z" fill="black"/>
</svg>
